Raleway-Thin-TTF.ufo
<glyph name="dollar" format="1">
  <advance width="613"/>
  <unicode hex="0024"/>
  <outline>
    <contour>
      <point x="516" y="616" type="line"/>
      <point x="474" y="662"/>
      <point x="383" y="696"/>
      <point x="320" y="696" type="qcurve"/>
      <point x="320" y="363" type="line"/>
      <point x="378" y="351"/>
      <point x="471" y="324"/>
      <point x="537" y="282"/>
      <point x="572" y="220"/>
      <point x="572" y="174" type="qcurve"/>
      <point x="572" y="87"/>
      <point x="439" y="-5"/>
      <point x="322" y="-5" type="qcurve"/>
      <point x="320" y="-5" type="line"/>
      <point x="320" y="-93" type="line"/>
      <point x="300" y="-93" type="line"/>
      <point x="300" y="-4" type="line"/>
      <point x="222" y="-1"/>
      <point x="100" y="52"/>
      <point x="46" y="105" type="qcurve"/>
      <point x="61" y="118" type="line"/>
      <point x="112" y="66"/>
      <point x="227" y="16"/>
      <point x="300" y="12" type="qcurve"/>
      <point x="300" y="349" type="line"/>
      <point x="244" y="360"/>
      <point x="159" y="385"/>
      <point x="100" y="424"/>
      <point x="70" y="481"/>
      <point x="70" y="524" type="qcurve"/>
      <point x="70" y="613"/>
      <point x="194" y="710"/>
      <point x="300" y="714" type="qcurve"/>
      <point x="300" y="815" type="line"/>
      <point x="320" y="815" type="line"/>
      <point x="320" y="715" type="line"/>
      <point x="387" y="714"/>
      <point x="487" y="675"/>
      <point x="529" y="630" type="qcurve"/>
    </contour>
    <contour>
      <point x="552" y="171" type="qcurve"/>
      <point x="552" y="210"/>
      <point x="524" y="266"/>
      <point x="467" y="305"/>
      <point x="380" y="333"/>
      <point x="320" y="345" type="qcurve"/>
      <point x="320" y="12" type="line"/>
      <point x="323" y="12" type="line"/>
      <point x="429" y="12"/>
      <point x="552" y="91"/>
    </contour>
    <contour>
      <point x="90" y="526" type="qcurve"/>
      <point x="90" y="489"/>
      <point x="114" y="439"/>
      <point x="165" y="404"/>
      <point x="244" y="380"/>
      <point x="300" y="368" type="qcurve"/>
      <point x="300" y="695" type="line"/>
      <point x="244" y="693"/>
      <point x="165" y="667"/>
      <point x="114" y="623"/>
      <point x="90" y="563"/>
    </contour>
  </outline>
</glyph>
<glyph name="percent" format="1">
  <advance width="670"/>
  <unicode hex="0025"/>
  <outline>
    <contour>
      <point x="186" y="444" type="qcurve"/>
      <point x="157" y="444"/>
      <point x="107" y="466"/>
      <point x="70" y="503"/>
      <point x="48" y="553"/>
      <point x="48" y="582" type="qcurve"/>
      <point x="48" y="610"/>
      <point x="70" y="661"/>
      <point x="107" y="698"/>
      <point x="157" y="720"/>
      <point x="186" y="720" type="qcurve"/>
      <point x="214" y="720"/>
      <point x="265" y="698"/>
      <point x="302" y="661"/>
      <point x="324" y="610"/>
      <point x="324" y="582" type="qcurve"/>
      <point x="324" y="553"/>
      <point x="302" y="503"/>
      <point x="265" y="466"/>
      <point x="214" y="444"/>
    </contour>
    <contour>
      <point x="186" y="464" type="qcurve"/>
      <point x="211" y="464"/>
      <point x="254" y="483"/>
      <point x="286" y="516"/>
      <point x="304" y="559"/>
      <point x="304" y="582" type="qcurve"/>
      <point x="304" y="607"/>
      <point x="285" y="650"/>
      <point x="252" y="682"/>
      <point x="209" y="700"/>
      <point x="186" y="700" type="qcurve"/>
      <point x="161" y="700"/>
      <point x="118" y="681"/>
      <point x="86" y="648"/>
      <point x="68" y="605"/>
      <point x="68" y="582" type="qcurve"/>
      <point x="68" y="557"/>
      <point x="87" y="514"/>
      <point x="119" y="482"/>
      <point x="162" y="464"/>
    </contour>
    <contour>
      <point x="485" y="-10" type="qcurve"/>
      <point x="456" y="-10"/>
      <point x="406" y="11"/>
      <point x="369" y="49"/>
      <point x="347" y="99"/>
      <point x="347" y="128" type="qcurve"/>
      <point x="347" y="156"/>
      <point x="369" y="207"/>
      <point x="406" y="244"/>
      <point x="456" y="266"/>
      <point x="485" y="266" type="qcurve"/>
      <point x="513" y="266"/>
      <point x="564" y="244"/>
      <point x="601" y="207"/>
      <point x="623" y="156"/>
      <point x="623" y="128" type="qcurve"/>
      <point x="623" y="99"/>
      <point x="601" y="49"/>
      <point x="564" y="11"/>
      <point x="513" y="-10"/>
    </contour>
    <contour>
      <point x="485" y="10" type="qcurve"/>
      <point x="510" y="10"/>
      <point x="553" y="29"/>
      <point x="585" y="62"/>
      <point x="603" y="104"/>
      <point x="603" y="128" type="qcurve"/>
      <point x="603" y="152"/>
      <point x="584" y="195"/>
      <point x="551" y="227"/>
      <point x="508" y="246"/>
      <point x="485" y="246" type="qcurve"/>
      <point x="460" y="246"/>
      <point x="417" y="227"/>
      <point x="385" y="194"/>
      <point x="367" y="151"/>
      <point x="367" y="128" type="qcurve"/>
      <point x="367" y="103"/>
      <point x="386" y="60"/>
      <point x="418" y="28"/>
      <point x="461" y="10"/>
    </contour>
    <contour>
      <point x="48" y="11" type="line"/>
      <point x="606" y="711" type="line"/>
      <point x="622" y="699" type="line"/>
      <point x="64" y="-1" type="line"/>
    </contour>
  </outline>
</glyph>
<glyph name="two" format="1">
  <advance width="486"/>
  <unicode hex="0032"/>
  <outline>
    <contour>
      <point x="47" y="0" type="line"/>
      <point x="47" y="18"/>
      <point x="55" y="86"/>
      <point x="89" y="163"/>
      <point x="158" y="238"/>
      <point x="218" y="263" type="qcurve"/>
      <point x="246" y="275"/>
      <point x="311" y="301"/>
      <point x="368" y="339"/>
      <point x="406" y="394"/>
      <point x="406" y="433" type="qcurve"/>
      <point x="406" y="456"/>
      <point x="386" y="502"/>
      <point x="346" y="538"/>
      <point x="285" y="561"/>
      <point x="244" y="561" type="qcurve"/>
      <point x="206" y="561"/>
      <point x="146" y="537"/>
      <point x="103" y="507"/>
      <point x="77" y="479"/>
      <point x="73" y="474" type="qcurve"/>
      <point x="57" y="486" type="line"/>
      <point x="57" y="486"/>
      <point x="83" y="516"/>
      <point x="131" y="552"/>
      <point x="200" y="581"/>
      <point x="244" y="581" type="qcurve"/>
      <point x="289" y="581"/>
      <point x="357" y="555"/>
      <point x="403" y="513"/>
      <point x="426" y="460"/>
      <point x="426" y="433" type="qcurve"/>
      <point x="426" y="388"/>
      <point x="385" y="326"/>
      <point x="323" y="284"/>
      <point x="253" y="256"/>
      <point x="225" y="244" type="qcurve"/>
      <point x="173" y="221"/>
      <point x="111" y="156"/>
      <point x="77" y="90"/>
      <point x="66" y="33"/>
      <point x="66" y="20" type="qcurve"/>
      <point x="437" y="20" type="line"/>
      <point x="437" y="0" type="line"/>
    </contour>
  </outline>
</glyph>
<glyph name="bracketright" format="1">
  <advance width="228"/>
  <unicode hex="005D"/>
  <outline>
    <contour>
      <point x="61" y="-40" type="line"/>
      <point x="61" y="-20" type="line"/>
      <point x="111" y="-20" type="line"/>
      <point x="111" y="720" type="line"/>
      <point x="61" y="720" type="line"/>
      <point x="61" y="740" type="line"/>
      <point x="131" y="740" type="line"/>
      <point x="131" y="-40" type="line"/>
    </contour>
  </outline>
</glyph>
<glyph name="p" format="1">
  <advance width="603"/>
  <unicode hex="0070"/>
  <outline>
    <contour>
      <point x="316" y="-10" type="qcurve"/>
      <point x="281" y="-10"/>
      <point x="219" y="11"/>
      <point x="165" y="46"/>
      <point x="121" y="93"/>
      <point x="104" y="119" type="qcurve"/>
      <point x="104" y="-213" type="line"/>
      <point x="84" y="-213" type="line"/>
      <point x="84" y="519" type="line"/>
      <point x="104" y="519" type="line"/>
      <point x="104" y="409" type="line"/>
      <point x="120" y="435"/>
      <point x="166" y="478"/>
      <point x="219" y="510"/>
      <point x="277" y="527"/>
      <point x="307" y="527" type="qcurve"/>
      <point x="362" y="527"/>
      <point x="454" y="480"/>
      <point x="520" y="404"/>
      <point x="557" y="308"/>
      <point x="557" y="258" type="qcurve"/>
      <point x="557" y="205"/>
      <point x="522" y="108"/>
      <point x="459" y="34"/>
      <point x="370" y="-10"/>
    </contour>
    <contour>
      <point x="316" y="10" type="qcurve"/>
      <point x="367" y="10"/>
      <point x="448" y="53"/>
      <point x="506" y="123"/>
      <point x="537" y="212"/>
      <point x="537" y="258" type="qcurve"/>
      <point x="537" y="307"/>
      <point x="501" y="397"/>
      <point x="439" y="466"/>
      <point x="355" y="507"/>
      <point x="307" y="507" type="qcurve"/>
      <point x="277" y="507"/>
      <point x="207" y="481"/>
      <point x="147" y="437"/>
      <point x="106" y="379"/>
      <point x="104" y="348" type="qcurve"/>
      <point x="104" y="161" type="line"/>
      <point x="118" y="129"/>
      <point x="162" y="74"/>
      <point x="217" y="34"/>
      <point x="281" y="10"/>
    </contour>
  </outline>
</glyph>
<glyph name="u" format="1">
  <advance width="576"/>
  <unicode hex="0075"/>
  <outline>
    <contour>
      <point x="282" y="519" type="move" name="top"/>
    </contour>
    <contour>
      <point x="496" y="11" type="move" name="bottom"/>
    </contour>
    <contour>
      <point x="245" y="-10" type="qcurve"/>
      <point x="78" y="-10"/>
      <point x="78" y="228" type="qcurve"/>
      <point x="78" y="519" type="line"/>
      <point x="98" y="519" type="line"/>
      <point x="98" y="228" type="line"/>
      <point x="98" y="10"/>
      <point x="245" y="10" type="qcurve"/>
      <point x="282" y="10"/>
      <point x="354" y="37"/>
      <point x="414" y="84"/>
      <point x="459" y="150"/>
      <point x="471" y="189" type="qcurve"/>
      <point x="471" y="519" type="line"/>
      <point x="491" y="519" type="line"/>
      <point x="491" y="40" type="line"/>
      <point x="491" y="20"/>
      <point x="507" y="20" type="qcurve"/>
      <point x="507" y="0" type="line"/>
      <point x="496" y="0"/>
      <point x="493" y="2" type="qcurve"/>
      <point x="483" y="6"/>
      <point x="471" y="27"/>
      <point x="471" y="40" type="qcurve"/>
      <point x="471" y="132" type="line"/>
      <point x="437" y="66"/>
      <point x="315" y="-10"/>
    </contour>
  </outline>
</glyph>
<glyph name="bar" format="1">
  <advance width="210"/>
  <unicode hex="007C"/>
  <outline>
    <contour>
      <point x="95" y="-130" type="line"/>
      <point x="95" y="775" type="line"/>
      <point x="115" y="775" type="line"/>
      <point x="115" y="-130" type="line"/>
    </contour>
  </outline>
</glyph>
<glyph name="asciitilde" format="1">
  <advance width="462"/>
  <unicode hex="007E"/>
  <outline>
    <contour>
      <point x="70" y="251" type="line"/>
      <point x="70" y="252"/>
      <point x="79" y="278"/>
      <point x="100" y="308"/>
      <point x="131" y="332"/>
      <point x="154" y="332" type="qcurve"/>
      <point x="174" y="332"/>
      <point x="211" y="313"/>
      <point x="247" y="290"/>
      <point x="283" y="271"/>
      <point x="303" y="271" type="qcurve"/>
      <point x="321" y="271"/>
      <point x="347" y="286"/>
      <point x="365" y="306"/>
      <point x="373" y="323"/>
      <point x="373" y="325" type="qcurve"/>
      <point x="393" y="324" type="line"/>
      <point x="385" y="303"/>
      <point x="373" y="287" type="qcurve"/>
      <point x="362" y="273"/>
      <point x="329" y="251"/>
      <point x="303" y="251" type="qcurve"/>
      <point x="279" y="251"/>
      <point x="239" y="270"/>
      <point x="203" y="293"/>
      <point x="170" y="312"/>
      <point x="154" y="312" type="qcurve"/>
      <point x="139" y="312"/>
      <point x="115" y="293"/>
      <point x="98" y="271"/>
      <point x="90" y="252"/>
      <point x="90" y="251" type="qcurve"/>
    </contour>
  </outline>
</glyph>
<glyph name="cent" format="1">
  <advance width="541"/>
  <unicode hex="00A2"/>
  <outline>
    <contour>
      <point x="276" y="-120" type="line"/>
      <point x="276" y="-9" type="line"/>
      <point x="225" y="-5"/>
      <point x="141" y="44"/>
      <point x="80" y="118"/>
      <point x="46" y="210"/>
      <point x="46" y="258" type="qcurve"/>
      <point x="46" y="309"/>
      <point x="80" y="403"/>
      <point x="140" y="478"/>
      <point x="225" y="524"/>
      <point x="276" y="527" type="qcurve"/>
      <point x="276" y="645" type="line"/>
      <point x="296" y="645" type="line"/>
      <point x="296" y="527" type="line"/>
      <point x="374" y="525"/>
      <point x="465" y="461"/>
      <point x="490" y="411" type="qcurve"/>
      <point x="471" y="404" type="line"/>
      <point x="442" y="456"/>
      <point x="352" y="505"/>
      <point x="296" y="507" type="qcurve"/>
      <point x="296" y="10" type="line"/>
      <point x="320" y="10"/>
      <point x="379" y="25"/>
      <point x="431" y="54"/>
      <point x="472" y="94"/>
      <point x="478" y="119" type="qcurve"/>
      <point x="498" y="113" type="line"/>
      <point x="488" y="83"/>
      <point x="444" y="37"/>
      <point x="387" y="6"/>
      <point x="324" y="-10"/>
      <point x="296" y="-10" type="qcurve"/>
      <point x="296" y="-120" type="line"/>
    </contour>
    <contour>
      <point x="66" y="258" type="qcurve"/>
      <point x="66" y="212"/>
      <point x="98" y="126"/>
      <point x="155" y="59"/>
      <point x="231" y="15"/>
      <point x="276" y="11" type="qcurve"/>
      <point x="276" y="507" type="line"/>
      <point x="226" y="504"/>
      <point x="148" y="458"/>
      <point x="94" y="388"/>
      <point x="66" y="301"/>
    </contour>
  </outline>
</glyph>
<glyph name="uni00AD" format="1">
  <advance width="541"/>
  <unicode hex="00AD"/>
  <outline>
    <contour>
      <point x="69" y="261" type="line"/>
      <point x="69" y="281" type="line"/>
      <point x="472" y="281" type="line"/>
      <point x="472" y="261" type="line"/>
    </contour>
  </outline>
</glyph>
<glyph name="threesuperior" format="1">
  <advance width="380"/>
  <unicode hex="00B3"/>
  <outline>
    <contour>
      <point x="190" y="418" type="qcurve"/>
      <point x="159" y="418"/>
      <point x="106" y="432"/>
      <point x="66" y="458"/>
      <point x="42" y="493"/>
      <point x="41" y="514" type="qcurve"/>
      <point x="57" y="521" type="line"/>
      <point x="58" y="504"/>
      <point x="79" y="474"/>
      <point x="115" y="451"/>
      <point x="163" y="437"/>
      <point x="190" y="437" type="qcurve"/>
      <point x="217" y="437"/>
      <point x="263" y="450"/>
      <point x="298" y="472"/>
      <point x="317" y="504"/>
      <point x="317" y="522" type="qcurve"/>
      <point x="317" y="562"/>
      <point x="235" y="609"/>
      <point x="168" y="609" type="qcurve"/>
      <point x="146" y="609" type="line"/>
      <point x="146" y="627" type="line"/>
      <point x="168" y="627" type="line"/>
      <point x="234" y="627"/>
      <point x="304" y="666"/>
      <point x="304" y="704" type="qcurve"/>
      <point x="304" y="743"/>
      <point x="235" y="793"/>
      <point x="182" y="793" type="qcurve"/>
      <point x="140" y="793"/>
      <point x="76" y="759"/>
      <point x="63" y="733" type="qcurve"/>
      <point x="48" y="745" type="line"/>
      <point x="63" y="775"/>
      <point x="136" y="811"/>
      <point x="182" y="811" type="qcurve"/>
      <point x="213" y="811"/>
      <point x="265" y="795"/>
      <point x="303" y="766"/>
      <point x="325" y="727"/>
      <point x="325" y="705" type="qcurve"/>
      <point x="325" y="638"/>
      <point x="236" y="618" type="qcurve"/>
      <point x="282" y="610"/>
      <point x="337" y="557"/>
      <point x="337" y="520" type="qcurve"/>
      <point x="337" y="498"/>
      <point x="314" y="460"/>
      <point x="274" y="433"/>
      <point x="221" y="418"/>
    </contour>
  </outline>
</glyph>
<glyph name="paragraph" format="1">
  <advance width="565"/>
  <unicode hex="00B6"/>
  <outline>
    <contour>
      <point x="32" y="479" type="qcurve"/>
      <point x="32" y="533"/>
      <point x="70" y="618"/>
      <point x="143" y="678"/>
      <point x="248" y="710"/>
      <point x="314" y="710" type="qcurve"/>
      <point x="515" y="710" type="line"/>
      <point x="515" y="690" type="line"/>
      <point x="445" y="690" type="line"/>
      <point x="445" y="-80" type="line"/>
      <point x="425" y="-80" type="line"/>
      <point x="425" y="248" type="line"/>
      <point x="334" y="248" type="line"/>
      <point x="334" y="-80" type="line"/>
      <point x="314" y="-80" type="line"/>
      <point x="314" y="248" type="line"/>
      <point x="248" y="249"/>
      <point x="144" y="281"/>
      <point x="71" y="340"/>
      <point x="32" y="425"/>
    </contour>
    <contour>
      <point x="52" y="479" type="qcurve"/>
      <point x="52" y="424"/>
      <point x="94" y="346"/>
      <point x="166" y="295"/>
      <point x="261" y="270"/>
      <point x="314" y="268" type="qcurve"/>
      <point x="314" y="690" type="line"/>
      <point x="186" y="690"/>
      <point x="52" y="579"/>
    </contour>
    <contour>
      <point x="425" y="690" type="line"/>
      <point x="334" y="690" type="line"/>
      <point x="334" y="268" type="line"/>
      <point x="425" y="268" type="line"/>
    </contour>
  </outline>
</glyph>
<glyph name="periodcentered" format="1">
  <advance width="158"/>
  <unicode hex="00B7"/>
  <outline>
    <contour>
      <point x="69" y="250" type="line"/>
      <point x="69" y="333" type="line"/>
      <point x="89" y="333" type="line"/>
      <point x="89" y="250" type="line"/>
    </contour>
  </outline>
</glyph>
<glyph name="questiondown" format="1">
  <advance width="461"/>
  <unicode hex="00BF"/>
  <outline>
    <contour>
      <point x="286" y="327" type="line"/>
      <point x="286" y="279"/>
      <point x="273" y="216"/>
      <point x="250" y="174"/>
      <point x="218" y="149"/>
      <point x="200" y="140" type="qcurve"/>
      <point x="176" y="128"/>
      <point x="125" y="104"/>
      <point x="82" y="68"/>
      <point x="54" y="14"/>
      <point x="54" y="-29" type="qcurve"/>
      <point x="54" y="-72"/>
      <point x="82" y="-134"/>
      <point x="129" y="-174"/>
      <point x="188" y="-193"/>
      <point x="220" y="-193" type="qcurve"/>
      <point x="250" y="-193"/>
      <point x="308" y="-177"/>
      <point x="358" y="-146"/>
      <point x="398" y="-103"/>
      <point x="411" y="-76" type="qcurve"/>
      <point x="429" y="-84" type="line"/>
      <point x="415" y="-115"/>
      <point x="370" y="-163"/>
      <point x="314" y="-196"/>
      <point x="252" y="-213"/>
      <point x="221" y="-213" type="qcurve"/>
      <point x="185" y="-213"/>
      <point x="117" y="-189"/>
      <point x="65" y="-142"/>
      <point x="34" y="-72"/>
      <point x="34" y="-26" type="qcurve"/>
      <point x="34" y="19"/>
      <point x="63" y="78"/>
      <point x="109" y="117"/>
      <point x="165" y="144"/>
      <point x="192" y="159" type="qcurve"/>
      <point x="208" y="168"/>
      <point x="235" y="189"/>
      <point x="255" y="226"/>
      <point x="266" y="283"/>
      <point x="266" y="327" type="qcurve"/>
    </contour>
    <contour>
      <point x="286" y="506" type="line"/>
      <point x="286" y="422" type="line"/>
      <point x="266" y="422" type="line"/>
      <point x="266" y="506" type="line"/>
    </contour>
  </outline>
</glyph>
<glyph name="Idieresis" format="1">
  <advance width="218"/>
  <unicode hex="00CF"/>
  <outline>
    <contour>
      <point x="99" y="0" type="line"/>
      <point x="99" y="710" type="line"/>
      <point x="119" y="710" type="line"/>
      <point x="119" y="0" type="line"/>
    </contour>
    <contour>
      <point x="41" y="841" type="line"/>
      <point x="41" y="918" type="line"/>
      <point x="61" y="918" type="line"/>
      <point x="61" y="841" type="line"/>
    </contour>
    <contour>
      <point x="157" y="841" type="line"/>
      <point x="157" y="918" type="line"/>
      <point x="177" y="918" type="line"/>
      <point x="177" y="841" type="line"/>
    </contour>
  </outline>
</glyph>
<glyph name="Oacute" format="1">
  <advance width="757"/>
  <unicode hex="00D3"/>
  <outline>
    <contour>
      <point x="379" y="-5" type="qcurve"/>
      <point x="305" y="-5"/>
      <point x="184" y="57"/>
      <point x="96" y="157"/>
      <point x="48" y="287"/>
      <point x="48" y="355" type="qcurve"/>
      <point x="48" y="426"/>
      <point x="99" y="556"/>
      <point x="188" y="656"/>
      <point x="309" y="715"/>
      <point x="379" y="715" type="qcurve"/>
      <point x="452" y="715"/>
      <point x="574" y="652"/>
      <point x="661" y="550"/>
      <point x="709" y="421"/>
      <point x="709" y="355" type="qcurve"/>
      <point x="709" y="283"/>
      <point x="658" y="153"/>
      <point x="569" y="54"/>
      <point x="449" y="-5"/>
    </contour>
    <contour>
      <point x="68" y="355" type="qcurve"/>
      <point x="68" y="289"/>
      <point x="115" y="166"/>
      <point x="197" y="71"/>
      <point x="311" y="15"/>
      <point x="379" y="15" type="qcurve"/>
      <point x="448" y="15"/>
      <point x="563" y="74"/>
      <point x="644" y="170"/>
      <point x="689" y="292"/>
      <point x="689" y="355" type="qcurve"/>
      <point x="689" y="421"/>
      <point x="642" y="544"/>
      <point x="558" y="639"/>
      <point x="445" y="695"/>
      <point x="379" y="695" type="qcurve"/>
      <point x="310" y="695"/>
      <point x="195" y="636"/>
      <point x="113" y="540"/>
      <point x="68" y="418"/>
    </contour>
    <contour>
      <point x="365" y="833" type="line"/>
      <point x="349" y="845" type="line"/>
      <point x="413" y="918" type="line"/>
      <point x="447" y="918" type="line"/>
    </contour>
  </outline>
</glyph>
<glyph name="Otilde" format="1">
  <advance width="757"/>
  <unicode hex="00D5"/>
  <outline>
    <contour>
      <point x="379" y="-5" type="qcurve"/>
      <point x="305" y="-5"/>
      <point x="184" y="57"/>
      <point x="96" y="157"/>
      <point x="48" y="287"/>
      <point x="48" y="355" type="qcurve"/>
      <point x="48" y="426"/>
      <point x="99" y="556"/>
      <point x="188" y="656"/>
      <point x="309" y="715"/>
      <point x="379" y="715" type="qcurve"/>
      <point x="452" y="715"/>
      <point x="574" y="652"/>
      <point x="661" y="550"/>
      <point x="709" y="421"/>
      <point x="709" y="355" type="qcurve"/>
      <point x="709" y="283"/>
      <point x="658" y="153"/>
      <point x="569" y="54"/>
      <point x="449" y="-5"/>
    </contour>
    <contour>
      <point x="68" y="355" type="qcurve"/>
      <point x="68" y="289"/>
      <point x="115" y="166"/>
      <point x="197" y="71"/>
      <point x="311" y="15"/>
      <point x="379" y="15" type="qcurve"/>
      <point x="448" y="15"/>
      <point x="563" y="74"/>
      <point x="644" y="170"/>
      <point x="689" y="292"/>
      <point x="689" y="355" type="qcurve"/>
      <point x="689" y="421"/>
      <point x="642" y="544"/>
      <point x="558" y="639"/>
      <point x="445" y="695"/>
      <point x="379" y="695" type="qcurve"/>
      <point x="310" y="695"/>
      <point x="195" y="636"/>
      <point x="113" y="540"/>
      <point x="68" y="418"/>
    </contour>
    <contour>
      <point x="440" y="851" type="qcurve"/>
      <point x="418" y="851"/>
      <point x="385" y="863"/>
      <point x="357" y="877"/>
      <point x="330" y="889"/>
      <point x="315" y="889" type="qcurve"/>
      <point x="299" y="889"/>
      <point x="279" y="876"/>
      <point x="268" y="859"/>
      <point x="264" y="843"/>
      <point x="264" y="841" type="qcurve"/>
      <point x="244" y="841" type="line"/>
      <point x="244" y="843"/>
      <point x="248" y="865"/>
      <point x="263" y="889"/>
      <point x="292" y="908"/>
      <point x="317" y="908" type="qcurve"/>
      <point x="336" y="908"/>
      <point x="366" y="896"/>
      <point x="394" y="882"/>
      <point x="423" y="870"/>
      <point x="442" y="870" type="qcurve"/>
      <point x="463" y="870"/>
      <point x="486" y="884"/>
      <point x="498" y="901"/>
      <point x="501" y="916"/>
      <point x="501" y="918" type="qcurve"/>
      <point x="521" y="918" type="line"/>
      <point x="521" y="915"/>
      <point x="516" y="893"/>
      <point x="500" y="869"/>
      <point x="467" y="851"/>
    </contour>
  </outline>
</glyph>
<glyph name="aring" format="1">
  <advance width="524"/>
  <unicode hex="00E5"/>
  <outline>
    <contour>
      <point x="207" y="-10" type="qcurve"/>
      <point x="172" y="-10"/>
      <point x="110" y="15"/>
      <point x="65" y="58"/>
      <point x="39" y="116"/>
      <point x="39" y="149" type="qcurve"/>
      <point x="39" y="182"/>
      <point x="70" y="236"/>
      <point x="127" y="275"/>
      <point x="206" y="297"/>
      <point x="253" y="297" type="qcurve"/>
      <point x="298" y="297"/>
      <point x="390" y="282"/>
      <point x="427" y="268" type="qcurve"/>
      <point x="427" y="327" type="line"/>
      <point x="427" y="367"/>
      <point x="403" y="434"/>
      <point x="358" y="481"/>
      <point x="295" y="507"/>
      <point x="257" y="507" type="qcurve"/>
      <point x="219" y="507"/>
      <point x="133" y="474"/>
      <point x="89" y="443" type="qcurve"/>
      <point x="77" y="459" type="line"/>
      <point x="177" y="527"/>
      <point x="257" y="527" type="qcurve"/>
      <point x="300" y="527"/>
      <point x="371" y="499"/>
      <point x="420" y="447"/>
      <point x="447" y="373"/>
      <point x="447" y="327" type="qcurve"/>
      <point x="447" y="40" type="line"/>
      <point x="447" y="20"/>
      <point x="463" y="20" type="qcurve"/>
      <point x="463" y="0" type="line"/>
      <point x="452" y="0"/>
      <point x="449" y="2" type="qcurve"/>
      <point x="439" y="6"/>
      <point x="427" y="27"/>
      <point x="427" y="40" type="qcurve"/>
      <point x="427" y="88" type="line"/>
      <point x="391" y="41"/>
      <point x="275" y="-10"/>
    </contour>
    <contour>
      <point x="207" y="10" type="qcurve"/>
      <point x="274" y="10"/>
      <point x="385" y="60"/>
      <point x="412" y="102" type="qcurve"/>
      <point x="427" y="123"/>
      <point x="427" y="143" type="qcurve"/>
      <point x="427" y="246" type="line"/>
      <point x="347" y="277"/>
      <point x="253" y="277" type="qcurve"/>
      <point x="209" y="277"/>
      <point x="138" y="259"/>
      <point x="87" y="225"/>
      <point x="59" y="178"/>
      <point x="59" y="149" type="qcurve"/>
      <point x="59" y="120"/>
      <point x="82" y="69"/>
      <point x="122" y="31"/>
      <point x="176" y="10"/>
    </contour>
    <contour>
      <point x="200" y="673" type="qcurve"/>
      <point x="200" y="697"/>
      <point x="233" y="730"/>
      <point x="257" y="730" type="qcurve"/>
      <point x="281" y="730"/>
      <point x="314" y="697"/>
      <point x="314" y="673" type="qcurve"/>
      <point x="314" y="649"/>
      <point x="281" y="616"/>
      <point x="257" y="616" type="qcurve"/>
      <point x="233" y="616"/>
      <point x="200" y="649"/>
    </contour>
    <contour>
      <point x="257" y="714" type="qcurve"/>
      <point x="240" y="714"/>
      <point x="216" y="692"/>
      <point x="216" y="673" type="qcurve"/>
      <point x="216" y="656"/>
      <point x="240" y="632"/>
      <point x="257" y="632" type="qcurve"/>
      <point x="272" y="632"/>
      <point x="298" y="655"/>
      <point x="298" y="673" type="qcurve"/>
      <point x="298" y="692"/>
      <point x="274" y="714"/>
    </contour>
  </outline>
</glyph>
<glyph name="eth" format="1">
  <advance width="593"/>
  <unicode hex="00F0"/>
  <outline>
    <contour>
      <point x="471" y="699" type="line"/>
      <point x="378" y="638" type="line"/>
      <point x="432" y="591"/>
      <point x="496" y="496"/>
      <point x="531" y="398"/>
      <point x="542" y="298"/>
      <point x="542" y="246" type="qcurve"/>
      <point x="542" y="194"/>
      <point x="503" y="101"/>
      <point x="436" y="31"/>
      <point x="346" y="-10"/>
      <point x="295" y="-10" type="qcurve"/>
      <point x="244" y="-10"/>
      <point x="154" y="29"/>
      <point x="87" y="95"/>
      <point x="48" y="183"/>
      <point x="48" y="232" type="qcurve"/>
      <point x="48" y="281"/>
      <point x="87" y="370"/>
      <point x="155" y="436"/>
      <point x="245" y="475"/>
      <point x="295" y="475" type="qcurve"/>
      <point x="334" y="475"/>
      <point x="405" y="454"/>
      <point x="464" y="415"/>
      <point x="509" y="362"/>
      <point x="522" y="330" type="qcurve"/>
      <point x="518" y="366"/>
      <point x="501" y="439"/>
      <point x="465" y="514"/>
      <point x="407" y="590"/>
      <point x="364" y="629" type="qcurve"/>
      <point x="240" y="547" type="line"/>
      <point x="230" y="561" type="line"/>
      <point x="350" y="640" type="line"/>
      <point x="296" y="686"/>
      <point x="220" y="730" type="qcurve"/>
      <point x="249" y="730" type="line"/>
      <point x="315" y="691"/>
      <point x="364" y="649" type="qcurve"/>
      <point x="461" y="713" type="line"/>
    </contour>
    <contour>
      <point x="68" y="230" type="qcurve"/>
      <point x="68" y="185"/>
      <point x="104" y="105"/>
      <point x="165" y="45"/>
      <point x="247" y="10"/>
      <point x="294" y="10" type="qcurve"/>
      <point x="340" y="10"/>
      <point x="423" y="48"/>
      <point x="486" y="113"/>
      <point x="522" y="199"/>
      <point x="522" y="247" type="qcurve"/>
      <point x="522" y="289"/>
      <point x="486" y="365"/>
      <point x="424" y="422"/>
      <point x="341" y="455"/>
      <point x="295" y="455" type="qcurve"/>
      <point x="249" y="455"/>
      <point x="166" y="419"/>
      <point x="104" y="357"/>
      <point x="68" y="276"/>
    </contour>
  </outline>
</glyph>
<glyph name="oslash" format="1">
  <advance width="586"/>
  <unicode hex="00F8"/>
  <outline>
    <contour>
      <point x="123" y="0" type="line"/>
      <point x="148" y="41" type="line"/>
      <point x="101" y="79"/>
      <point x="46" y="192"/>
      <point x="46" y="258" type="qcurve"/>
      <point x="46" y="313"/>
      <point x="85" y="410"/>
      <point x="153" y="484"/>
      <point x="243" y="527"/>
      <point x="293" y="527" type="qcurve"/>
      <point x="328" y="527"/>
      <point x="392" y="506"/>
      <point x="420" y="487" type="qcurve"/>
      <point x="440" y="519" type="line"/>
      <point x="466" y="519" type="line"/>
      <point x="438" y="474" type="line"/>
      <point x="484" y="436"/>
      <point x="540" y="324"/>
      <point x="540" y="258" type="qcurve"/>
      <point x="540" y="204"/>
      <point x="501" y="106"/>
      <point x="434" y="33"/>
      <point x="344" y="-10"/>
      <point x="293" y="-10" type="qcurve"/>
      <point x="258" y="-10"/>
      <point x="193" y="10"/>
      <point x="165" y="29" type="qcurve"/>
      <point x="148" y="0" type="line"/>
    </contour>
    <contour>
      <point x="66" y="256" type="qcurve"/>
      <point x="66" y="196"/>
      <point x="116" y="92"/>
      <point x="158" y="58" type="qcurve"/>
      <point x="410" y="470" type="line"/>
      <point x="384" y="487"/>
      <point x="325" y="507"/>
      <point x="293" y="507" type="qcurve"/>
      <point x="247" y="507"/>
      <point x="164" y="467"/>
      <point x="102" y="398"/>
      <point x="66" y="307"/>
    </contour>
    <contour>
      <point x="292" y="10" type="qcurve"/>
      <point x="338" y="10"/>
      <point x="421" y="50"/>
      <point x="484" y="118"/>
      <point x="520" y="208"/>
      <point x="520" y="259" type="qcurve"/>
      <point x="520" y="319"/>
      <point x="470" y="421"/>
      <point x="428" y="456" type="qcurve"/>
      <point x="176" y="46" type="line"/>
      <point x="229" y="10"/>
    </contour>
  </outline>
</glyph>
<glyph name="ydieresis" format="1">
  <advance width="536"/>
  <unicode hex="00FF"/>
  <outline>
    <contour>
      <point x="128" y="-203" type="line"/>
      <point x="145" y="-203"/>
      <point x="170" y="-200"/>
      <point x="175" y="-193" type="qcurve"/>
      <point x="178" y="-190"/>
      <point x="186" y="-173"/>
      <point x="204" y="-132"/>
      <point x="236" y="-59"/>
      <point x="262" y="0" type="qcurve"/>
      <point x="21" y="519" type="line"/>
      <point x="43" y="519" type="line"/>
      <point x="272" y="25" type="line"/>
      <point x="489" y="519" type="line"/>
      <point x="511" y="519" type="line"/>
      <point x="202" y="-186" type="line"/>
      <point x="190" y="-212"/>
      <point x="169" y="-218" type="qcurve"/>
      <point x="149" y="-223"/>
      <point x="128" y="-223" type="qcurve"/>
    </contour>
    <contour>
      <point x="204" y="653" type="line"/>
      <point x="204" y="730" type="line"/>
      <point x="224" y="730" type="line"/>
      <point x="224" y="653" type="line"/>
    </contour>
    <contour>
      <point x="320" y="653" type="line"/>
      <point x="320" y="730" type="line"/>
      <point x="340" y="730" type="line"/>
      <point x="340" y="653" type="line"/>
    </contour>
  </outline>
</glyph>
<glyph name="Dcroat" format="1">
  <advance width="718"/>
  <unicode hex="0110"/>
  <outline>
    <contour>
      <point x="106" y="0" type="line"/>
      <point x="106" y="347" type="line"/>
      <point x="35" y="347" type="line"/>
      <point x="35" y="367" type="line"/>
      <point x="106" y="367" type="line"/>
      <point x="106" y="710" type="line"/>
      <point x="334" y="710" type="line"/>
      <point x="418" y="710"/>
      <point x="543" y="654"/>
      <point x="626" y="558"/>
      <point x="667" y="429"/>
      <point x="667" y="356" type="qcurve"/>
      <point x="667" y="275"/>
      <point x="620" y="144"/>
      <point x="534" y="51"/>
      <point x="410" y="0"/>
      <point x="334" y="0" type="qcurve"/>
    </contour>
    <contour>
      <point x="647" y="356" type="qcurve"/>
      <point x="647" y="429"/>
      <point x="606" y="551"/>
      <point x="526" y="640"/>
      <point x="409" y="690"/>
      <point x="334" y="690" type="qcurve"/>
      <point x="126" y="690" type="line"/>
      <point x="126" y="367" type="line"/>
      <point x="318" y="367" type="line"/>
      <point x="318" y="347" type="line"/>
      <point x="126" y="347" type="line"/>
      <point x="126" y="20" type="line"/>
      <point x="334" y="20" type="line"/>
      <point x="411" y="20"/>
      <point x="528" y="71"/>
      <point x="607" y="161"/>
      <point x="647" y="284"/>
    </contour>
  </outline>
</glyph>
<glyph name="Ebreve" format="1">
  <advance width="617"/>
  <unicode hex="0114"/>
  <outline>
    <contour>
      <point x="565" y="20" type="line"/>
      <point x="565" y="0" type="line"/>
      <point x="99" y="0" type="line"/>
      <point x="99" y="710" type="line"/>
      <point x="556" y="710" type="line"/>
      <point x="556" y="690" type="line"/>
      <point x="119" y="690" type="line"/>
      <point x="119" y="373" type="line"/>
      <point x="502" y="373" type="line"/>
      <point x="502" y="353" type="line"/>
      <point x="119" y="353" type="line"/>
      <point x="119" y="20" type="line"/>
    </contour>
    <contour>
      <point x="344" y="858" type="qcurve"/>
      <point x="364" y="858"/>
      <point x="397" y="893"/>
      <point x="400" y="918" type="qcurve"/>
      <point x="418" y="918" type="line"/>
      <point x="418" y="903"/>
      <point x="406" y="875"/>
      <point x="385" y="854"/>
      <point x="359" y="841"/>
      <point x="344" y="841" type="qcurve"/>
      <point x="329" y="841"/>
      <point x="303" y="854"/>
      <point x="282" y="875"/>
      <point x="270" y="903"/>
      <point x="270" y="918" type="qcurve"/>
      <point x="289" y="918" type="line"/>
      <point x="289" y="895"/>
      <point x="323" y="858"/>
    </contour>
  </outline>
</glyph>
<glyph name="gcircumflex" format="1">
  <advance width="603"/>
  <unicode hex="011D"/>
  <outline>
    <contour>
      <point x="296" y="-10" type="qcurve"/>
      <point x="242" y="-10"/>
      <point x="150" y="36"/>
      <point x="83" y="112"/>
      <point x="46" y="208"/>
      <point x="46" y="258" type="qcurve"/>
      <point x="46" y="310"/>
      <point x="81" y="407"/>
      <point x="145" y="482"/>
      <point x="234" y="527"/>
      <point x="287" y="527" type="qcurve"/>
      <point x="322" y="527"/>
      <point x="383" y="507"/>
      <point x="436" y="472"/>
      <point x="480" y="425"/>
      <point x="499" y="398" type="qcurve"/>
      <point x="499" y="519" type="line"/>
      <point x="519" y="519" type="line"/>
      <point x="519" y="-22" type="line"/>
      <point x="519" y="-73"/>
      <point x="481" y="-149"/>
      <point x="417" y="-199"/>
      <point x="334" y="-223"/>
      <point x="290" y="-223" type="qcurve"/>
      <point x="198" y="-223"/>
      <point x="94" y="-155"/>
      <point x="65" y="-99" type="qcurve"/>
      <point x="84" y="-93" type="line"/>
      <point x="116" y="-152"/>
      <point x="227" y="-203"/>
      <point x="290" y="-203" type="qcurve"/>
      <point x="333" y="-203"/>
      <point x="409" y="-180"/>
      <point x="466" y="-134"/>
      <point x="499" y="-67"/>
      <point x="499" y="-22" type="qcurve"/>
      <point x="499" y="108" type="line"/>
      <point x="482" y="82"/>
      <point x="437" y="39"/>
      <point x="384" y="7"/>
      <point x="326" y="-10"/>
    </contour>
    <contour>
      <point x="296" y="10" type="qcurve"/>
      <point x="333" y="10"/>
      <point x="404" y="39"/>
      <point x="460" y="85"/>
      <point x="497" y="141"/>
      <point x="499" y="169" type="qcurve"/>
      <point x="499" y="356" type="line"/>
      <point x="487" y="389"/>
      <point x="442" y="444"/>
      <point x="386" y="484"/>
      <point x="320" y="507"/>
      <point x="287" y="507" type="qcurve"/>
      <point x="234" y="507"/>
      <point x="152" y="462"/>
      <point x="96" y="391"/>
      <point x="66" y="302"/>
      <point x="66" y="258" type="qcurve"/>
      <point x="66" y="209"/>
      <point x="102" y="120"/>
      <point x="164" y="51"/>
      <point x="248" y="10"/>
    </contour>
    <contour>
      <point x="213" y="656" type="line"/>
      <point x="306" y="730" type="line"/>
      <point x="322" y="730" type="line"/>
      <point x="415" y="656" type="line"/>
      <point x="399" y="644" type="line"/>
      <point x="314" y="707" type="line"/>
      <point x="229" y="644" type="line"/>
    </contour>
  </outline>
</glyph>
<glyph name="hbar" format="1">
  <advance width="565"/>
  <unicode hex="0127"/>
  <outline>
    <contour>
      <point x="487" y="0" type="line"/>
      <point x="467" y="0" type="line"/>
      <point x="467" y="289" type="line"/>
      <point x="467" y="507"/>
      <point x="323" y="507" type="qcurve"/>
      <point x="287" y="507"/>
      <point x="217" y="479"/>
      <point x="158" y="431"/>
      <point x="114" y="366"/>
      <point x="104" y="328" type="qcurve"/>
      <point x="104" y="0" type="line"/>
      <point x="84" y="0" type="line"/>
      <point x="84" y="633" type="line"/>
      <point x="10" y="633" type="line"/>
      <point x="10" y="653" type="line"/>
      <point x="84" y="653" type="line"/>
      <point x="84" y="730" type="line"/>
      <point x="104" y="730" type="line"/>
      <point x="104" y="653" type="line"/>
      <point x="230" y="653" type="line"/>
      <point x="230" y="633" type="line"/>
      <point x="104" y="633" type="line"/>
      <point x="104" y="385" type="line"/>
      <point x="120" y="417"/>
      <point x="167" y="470"/>
      <point x="224" y="507"/>
      <point x="289" y="527"/>
      <point x="322" y="527" type="qcurve"/>
      <point x="403" y="527"/>
      <point x="487" y="407"/>
      <point x="487" y="289" type="qcurve"/>
    </contour>
  </outline>
</glyph>
<glyph name="Itilde" format="1">
  <advance width="218"/>
  <unicode hex="0128"/>
  <outline>
    <contour>
      <point x="99" y="0" type="line"/>
      <point x="99" y="710" type="line"/>
      <point x="119" y="710" type="line"/>
      <point x="119" y="0" type="line"/>
    </contour>
    <contour>
      <point x="170" y="851" type="qcurve"/>
      <point x="148" y="851"/>
      <point x="115" y="863"/>
      <point x="87" y="877"/>
      <point x="60" y="889"/>
      <point x="45" y="889" type="qcurve"/>
      <point x="29" y="889"/>
      <point x="9" y="876"/>
      <point x="-2" y="859"/>
      <point x="-6" y="843"/>
      <point x="-6" y="841" type="qcurve"/>
      <point x="-26" y="841" type="line"/>
      <point x="-26" y="843"/>
      <point x="-22" y="865"/>
      <point x="-7" y="889"/>
      <point x="22" y="908"/>
      <point x="47" y="908" type="qcurve"/>
      <point x="66" y="908"/>
      <point x="96" y="896"/>
      <point x="124" y="882"/>
      <point x="153" y="870"/>
      <point x="172" y="870" type="qcurve"/>
      <point x="193" y="870"/>
      <point x="216" y="884"/>
      <point x="228" y="901"/>
      <point x="231" y="916"/>
      <point x="231" y="918" type="qcurve"/>
      <point x="251" y="918" type="line"/>
      <point x="251" y="915"/>
      <point x="246" y="893"/>
      <point x="230" y="869"/>
      <point x="197" y="851"/>
    </contour>
  </outline>
</glyph>
<glyph name="imacron" format="1">
  <advance width="188"/>
  <unicode hex="012B"/>
  <outline>
    <contour>
      <point x="84" y="0" type="line"/>
      <point x="84" y="519" type="line"/>
      <point x="104" y="519" type="line"/>
      <point x="104" y="0" type="line"/>
    </contour>
    <contour>
      <point x="-46" y="686" type="line"/>
      <point x="-46" y="706" type="line"/>
      <point x="234" y="706" type="line"/>
      <point x="234" y="686" type="line"/>
    </contour>
  </outline>
</glyph>
<glyph name="Iogonek" format="1">
  <advance width="218"/>
  <unicode hex="012E"/>
  <outline>
    <contour>
      <point x="70" y="-159" type="line"/>
      <point x="45" y="-153"/>
      <point x="18" y="-121"/>
      <point x="18" y="-98" type="qcurve"/>
      <point x="18" y="-72"/>
      <point x="55" y="-24"/>
      <point x="99" y="8" type="qcurve"/>
      <point x="99" y="710" type="line"/>
      <point x="119" y="710" type="line"/>
      <point x="119" y="0" type="line"/>
      <point x="74" y="-31"/>
      <point x="38" y="-72"/>
      <point x="38" y="-95" type="qcurve"/>
      <point x="38" y="-133"/>
      <point x="82" y="-142" type="qcurve"/>
    </contour>
  </outline>
</glyph>
<glyph name="ij" format="1">
  <advance width="384"/>
  <unicode hex="0133"/>
  <outline>
    <contour>
      <point x="84" y="0" type="line"/>
      <point x="84" y="519" type="line"/>
      <point x="104" y="519" type="line"/>
      <point x="104" y="0" type="line"/>
    </contour>
    <contour>
      <point x="84" y="653" type="line"/>
      <point x="84" y="730" type="line"/>
      <point x="104" y="730" type="line"/>
      <point x="104" y="653" type="line"/>
    </contour>
    <contour>
      <point x="167" y="-170" type="qcurve"/>
      <point x="138" y="-170"/>
      <point x="87" y="-156"/>
      <point x="67" y="-136" type="qcurve"/>
      <point x="83" y="-124" type="line"/>
      <point x="101" y="-140"/>
      <point x="145" y="-150"/>
      <point x="166" y="-150" type="qcurve"/>
      <point x="187" y="-150"/>
      <point x="227" y="-132"/>
      <point x="260" y="-102"/>
      <point x="280" y="-60"/>
      <point x="280" y="-36" type="qcurve"/>
      <point x="280" y="519" type="line"/>
      <point x="300" y="519" type="line"/>
      <point x="300" y="-36" type="line"/>
      <point x="300" y="-65"/>
      <point x="276" y="-114"/>
      <point x="238" y="-150"/>
      <point x="190" y="-170"/>
    </contour>
    <contour>
      <point x="280" y="653" type="line"/>
      <point x="280" y="730" type="line"/>
      <point x="300" y="730" type="line"/>
      <point x="300" y="653" type="line"/>
    </contour>
  </outline>
</glyph>
<glyph name="Lacute" format="1">
  <advance width="579"/>
  <unicode hex="0139"/>
  <outline>
    <contour>
      <point x="99" y="0" type="line"/>
      <point x="99" y="710" type="line"/>
      <point x="119" y="710" type="line"/>
      <point x="119" y="20" type="line"/>
      <point x="565" y="20" type="line"/>
      <point x="565" y="0" type="line"/>
    </contour>
    <contour>
      <point x="317" y="833" type="line"/>
      <point x="301" y="845" type="line"/>
      <point x="365" y="918" type="line"/>
      <point x="399" y="918" type="line"/>
    </contour>
  </outline>
</glyph>
<glyph name="ldot" format="1">
  <advance width="255"/>
  <unicode hex="0140"/>
  <outline>
    <contour>
      <point x="90" y="730" type="line"/>
      <point x="110" y="730" type="line"/>
      <point x="110" y="77" type="line"/>
      <point x="110" y="48"/>
      <point x="146" y="14"/>
      <point x="176" y="14" type="qcurve"/>
      <point x="187" y="14"/>
      <point x="218" y="19"/>
      <point x="231" y="23" type="qcurve"/>
      <point x="238" y="7" type="line"/>
      <point x="224" y="2"/>
      <point x="183" y="-5"/>
      <point x="169" y="-5" type="qcurve"/>
      <point x="134" y="-5"/>
      <point x="90" y="40"/>
      <point x="90" y="77" type="qcurve"/>
    </contour>
    <contour>
      <point x="216" y="250" type="line"/>
      <point x="216" y="333" type="line"/>
      <point x="236" y="333" type="line"/>
      <point x="236" y="250" type="line"/>
    </contour>
  </outline>
</glyph>
<glyph name="Ncaron" format="1">
  <advance width="776"/>
  <unicode hex="0147"/>
  <outline>
    <contour>
      <point x="119" y="671" type="line"/>
      <point x="119" y="0" type="line"/>
      <point x="99" y="0" type="line"/>
      <point x="99" y="710" type="line"/>
      <point x="114" y="710" type="line"/>
      <point x="657" y="29" type="line"/>
      <point x="657" y="710" type="line"/>
      <point x="677" y="710" type="line"/>
      <point x="677" y="0" type="line"/>
      <point x="654" y="0" type="line"/>
    </contour>
    <contour>
      <point x="308" y="918" type="line"/>
      <point x="393" y="855" type="line"/>
      <point x="478" y="918" type="line"/>
      <point x="494" y="906" type="line"/>
      <point x="401" y="832" type="line"/>
      <point x="385" y="832" type="line"/>
      <point x="292" y="906" type="line"/>
    </contour>
  </outline>
</glyph>
<glyph name="oe" format="1">
  <advance width="1050"/>
  <unicode hex="0153"/>
  <outline>
    <contour>
      <point x="291" y="-10" type="qcurve"/>
      <point x="240" y="-10"/>
      <point x="151" y="32"/>
      <point x="84" y="104"/>
      <point x="46" y="201"/>
      <point x="46" y="257" type="qcurve"/>
      <point x="46" y="313"/>
      <point x="85" y="411"/>
      <point x="152" y="485"/>
      <point x="243" y="527"/>
      <point x="295" y="527" type="qcurve"/>
      <point x="336" y="527"/>
      <point x="411" y="499"/>
      <point x="473" y="448"/>
      <point x="517" y="376"/>
      <point x="528" y="332" type="qcurve"/>
      <point x="538" y="377"/>
      <point x="582" y="449"/>
      <point x="644" y="500"/>
      <point x="722" y="527"/>
      <point x="766" y="527" type="qcurve"/>
      <point x="818" y="527"/>
      <point x="904" y="490"/>
      <point x="968" y="420"/>
      <point x="1008" y="321"/>
      <point x="1014" y="259" type="qcurve"/>
      <point x="1015" y="248" type="line"/>
      <point x="540" y="248" type="line"/>
      <point x="544" y="198"/>
      <point x="585" y="111"/>
      <point x="649" y="47"/>
      <point x="734" y="10"/>
      <point x="781" y="10" type="qcurve"/>
      <point x="812" y="10"/>
      <point x="871" y="26"/>
      <point x="920" y="55"/>
      <point x="957" y="95"/>
      <point x="967" y="119" type="qcurve"/>
      <point x="986" y="114" type="line"/>
      <point x="975" y="87"/>
      <point x="932" y="41"/>
      <point x="877" y="8"/>
      <point x="812" y="-10"/>
      <point x="779" y="-10" type="qcurve"/>
      <point x="737" y="-10"/>
      <point x="658" y="19"/>
      <point x="591" y="71"/>
      <point x="542" y="143"/>
      <point x="530" y="185" type="qcurve"/>
      <point x="518" y="141"/>
      <point x="472" y="69"/>
      <point x="409" y="18"/>
      <point x="333" y="-10"/>
    </contour>
    <contour>
      <point x="292" y="10" type="qcurve"/>
      <point x="339" y="10"/>
      <point x="422" y="49"/>
      <point x="484" y="116"/>
      <point x="520" y="207"/>
      <point x="520" y="258" type="qcurve"/>
      <point x="520" y="309"/>
      <point x="484" y="400"/>
      <point x="423" y="468"/>
      <point x="340" y="507"/>
      <point x="294" y="507" type="qcurve"/>
      <point x="247" y="507"/>
      <point x="164" y="467"/>
      <point x="102" y="398"/>
      <point x="66" y="307"/>
      <point x="66" y="255" type="qcurve"/>
      <point x="66" y="204"/>
      <point x="101" y="115"/>
      <point x="163" y="48"/>
      <point x="245" y="10"/>
    </contour>
    <contour>
      <point x="994" y="268" type="line"/>
      <point x="991" y="320"/>
      <point x="953" y="408"/>
      <point x="892" y="471"/>
      <point x="812" y="507"/>
      <point x="766" y="507" type="qcurve"/>
      <point x="720" y="507"/>
      <point x="640" y="471"/>
      <point x="579" y="407"/>
      <point x="543" y="319"/>
      <point x="540" y="268" type="qcurve"/>
    </contour>
  </outline>
</glyph>
<glyph name="uni0162" format="1">
  <advance width="599"/>
  <unicode hex="0162"/>
  <outline>
    <contour>
      <point x="221" y="-125" type="line"/>
      <point x="236" y="-132"/>
      <point x="282" y="-143"/>
      <point x="308" y="-143" type="qcurve"/>
      <point x="366" y="-143"/>
      <point x="366" y="-105" type="qcurve"/>
      <point x="366" y="-84"/>
      <point x="339" y="-67"/>
      <point x="318" y="-67" type="qcurve"/>
      <point x="297" y="-67"/>
      <point x="251" y="-78"/>
      <point x="237" y="-83" type="qcurve"/>
      <point x="289" y="7" type="line"/>
      <point x="289" y="690" type="line"/>
      <point x="17" y="690" type="line"/>
      <point x="17" y="710" type="line"/>
      <point x="581" y="710" type="line"/>
      <point x="581" y="690" type="line"/>
      <point x="309" y="690" type="line"/>
      <point x="309" y="0" type="line"/>
      <point x="276" y="-57" type="line"/>
      <point x="286" y="-53"/>
      <point x="310" y="-51"/>
      <point x="318" y="-51" type="qcurve"/>
      <point x="386" y="-51"/>
      <point x="386" y="-105" type="qcurve"/>
      <point x="386" y="-135"/>
      <point x="343" y="-162"/>
      <point x="305" y="-162" type="qcurve"/>
      <point x="279" y="-162"/>
      <point x="230" y="-151"/>
      <point x="211" y="-143" type="qcurve"/>
    </contour>
  </outline>
</glyph>
<glyph name="tcaron" format="1">
  <advance width="295"/>
  <unicode hex="0165"/>
  <outline>
    <contour>
      <point x="286" y="24" type="line"/>
      <point x="286" y="24"/>
      <point x="271" y="14"/>
      <point x="246" y="4"/>
      <point x="212" y="-5"/>
      <point x="191" y="-5" type="qcurve"/>
      <point x="155" y="-5"/>
      <point x="101" y="39"/>
      <point x="101" y="75" type="qcurve"/>
      <point x="101" y="499" type="line"/>
      <point x="26" y="499" type="line"/>
      <point x="26" y="519" type="line"/>
      <point x="101" y="519" type="line"/>
      <point x="101" y="700" type="line"/>
      <point x="121" y="700" type="line"/>
      <point x="121" y="519" type="line"/>
      <point x="246" y="519" type="line"/>
      <point x="246" y="499" type="line"/>
      <point x="121" y="499" type="line"/>
      <point x="121" y="75" type="line"/>
      <point x="123" y="46"/>
      <point x="165" y="15"/>
      <point x="191" y="15" type="qcurve"/>
      <point x="208" y="15"/>
      <point x="238" y="22"/>
      <point x="261" y="31"/>
      <point x="274" y="39"/>
      <point x="275" y="40" type="qcurve"/>
    </contour>
    <contour>
      <point x="216" y="645" type="line"/>
      <point x="200" y="657" type="line"/>
      <point x="264" y="730" type="line"/>
      <point x="298" y="730" type="line"/>
    </contour>
  </outline>
</glyph>
<glyph name="Wcircumflex" format="1">
  <advance width="1038"/>
  <unicode hex="0174"/>
  <outline>
    <contour>
      <point x="381" y="704" type="line"/>
      <point x="403" y="704" type="line"/>
      <point x="518" y="438" type="line"/>
      <point x="634" y="704" type="line"/>
      <point x="656" y="704" type="line"/>
      <point x="529" y="414" type="line"/>
      <point x="699" y="25" type="line"/>
      <point x="997" y="710" type="line"/>
      <point x="1019" y="710" type="line"/>
      <point x="710" y="0" type="line"/>
      <point x="688" y="0" type="line"/>
      <point x="519" y="389" type="line"/>
      <point x="350" y="0" type="line"/>
      <point x="328" y="0" type="line"/>
      <point x="19" y="710" type="line"/>
      <point x="41" y="710" type="line"/>
      <point x="339" y="25" type="line"/>
      <point x="508" y="414" type="line"/>
    </contour>
    <contour>
      <point x="417" y="844" type="line"/>
      <point x="510" y="918" type="line"/>
      <point x="526" y="918" type="line"/>
      <point x="619" y="844" type="line"/>
      <point x="603" y="832" type="line"/>
      <point x="518" y="895" type="line"/>
      <point x="433" y="832" type="line"/>
    </contour>
  </outline>
</glyph>
<glyph name="Zcaron" format="1">
  <advance width="624"/>
  <unicode hex="017D"/>
  <outline>
    <contour>
      <point x="28" y="20" type="line"/>
      <point x="570" y="690" type="line"/>
      <point x="33" y="690" type="line"/>
      <point x="33" y="710" type="line"/>
      <point x="595" y="710" type="line"/>
      <point x="595" y="690" type="line"/>
      <point x="53" y="20" type="line"/>
      <point x="591" y="20" type="line"/>
      <point x="591" y="0" type="line"/>
      <point x="28" y="0" type="line"/>
    </contour>
    <contour>
      <point x="245" y="918" type="line"/>
      <point x="330" y="855" type="line"/>
      <point x="415" y="918" type="line"/>
      <point x="431" y="906" type="line"/>
      <point x="338" y="832" type="line"/>
      <point x="322" y="832" type="line"/>
      <point x="229" y="906" type="line"/>
    </contour>
  </outline>
</glyph>
<glyph name="uni01CA" format="1">
  <advance width="1249"/>
  <unicode hex="01CA"/>
  <outline>
    <contour>
      <point x="119" y="671" type="line"/>
      <point x="119" y="0" type="line"/>
      <point x="99" y="0" type="line"/>
      <point x="99" y="710" type="line"/>
      <point x="114" y="710" type="line"/>
      <point x="657" y="29" type="line"/>
      <point x="657" y="710" type="line"/>
      <point x="677" y="710" type="line"/>
      <point x="677" y="0" type="line"/>
      <point x="654" y="0" type="line"/>
    </contour>
    <contour>
      <point x="806" y="49" type="line"/>
      <point x="864" y="9"/>
      <point x="949" y="9" type="qcurve"/>
      <point x="1013" y="9"/>
      <point x="1088" y="56"/>
      <point x="1127" y="143"/>
      <point x="1139" y="269"/>
      <point x="1139" y="349" type="qcurve"/>
      <point x="1139" y="710" type="line"/>
      <point x="1159" y="710" type="line"/>
      <point x="1159" y="349" type="line"/>
      <point x="1159" y="268"/>
      <point x="1146" y="135"/>
      <point x="1102" y="41"/>
      <point x="1019" y="-11"/>
      <point x="949" y="-11" type="qcurve"/>
      <point x="859" y="-11"/>
      <point x="795" y="33" type="qcurve"/>
    </contour>
  </outline>
</glyph>
<glyph name="uni01CB" format="1">
  <advance width="972"/>
  <unicode hex="01CB"/>
  <outline>
    <contour>
      <point x="119" y="671" type="line"/>
      <point x="119" y="0" type="line"/>
      <point x="99" y="0" type="line"/>
      <point x="99" y="710" type="line"/>
      <point x="114" y="710" type="line"/>
      <point x="657" y="29" type="line"/>
      <point x="657" y="710" type="line"/>
      <point x="677" y="710" type="line"/>
      <point x="677" y="0" type="line"/>
      <point x="654" y="0" type="line"/>
    </contour>
    <contour>
      <point x="755" y="-170" type="qcurve"/>
      <point x="726" y="-170"/>
      <point x="675" y="-156"/>
      <point x="655" y="-136" type="qcurve"/>
      <point x="671" y="-124" type="line"/>
      <point x="689" y="-140"/>
      <point x="733" y="-150"/>
      <point x="754" y="-150" type="qcurve"/>
      <point x="775" y="-150"/>
      <point x="815" y="-132"/>
      <point x="848" y="-102"/>
      <point x="868" y="-60"/>
      <point x="868" y="-36" type="qcurve"/>
      <point x="868" y="519" type="line"/>
      <point x="888" y="519" type="line"/>
      <point x="888" y="-36" type="line"/>
      <point x="888" y="-65"/>
      <point x="864" y="-114"/>
      <point x="826" y="-150"/>
      <point x="778" y="-170"/>
    </contour>
    <contour>
      <point x="868" y="653" type="line"/>
      <point x="868" y="730" type="line"/>
      <point x="888" y="730" type="line"/>
      <point x="888" y="653" type="line"/>
    </contour>
  </outline>
</glyph>
<glyph name="iinvertedbreve" format="1">
  <advance width="188"/>
  <unicode hex="020B"/>
  <outline>
    <contour>
      <point x="84" y="0" type="line"/>
      <point x="84" y="519" type="line"/>
      <point x="104" y="519" type="line"/>
      <point x="104" y="0" type="line"/>
    </contour>
    <contour>
      <point x="93" y="713" type="qcurve"/>
      <point x="72" y="713"/>
      <point x="38" y="676"/>
      <point x="38" y="653" type="qcurve"/>
      <point x="19" y="653" type="line"/>
      <point x="19" y="668"/>
      <point x="31" y="696"/>
      <point x="52" y="717"/>
      <point x="78" y="730"/>
      <point x="93" y="730" type="qcurve"/>
      <point x="108" y="730"/>
      <point x="134" y="717"/>
      <point x="155" y="696"/>
      <point x="167" y="668"/>
      <point x="167" y="653" type="qcurve"/>
      <point x="149" y="653" type="line"/>
      <point x="146" y="678"/>
      <point x="113" y="713"/>
    </contour>
  </outline>
</glyph>
<glyph name="rdblgrave" format="1">
  <advance width="323"/>
  <unicode hex="0211"/>
  <outline>
    <contour>
      <point x="306" y="499" type="line"/>
      <point x="232" y="496"/>
      <point x="125" y="406"/>
      <point x="104" y="328" type="qcurve"/>
      <point x="104" y="0" type="line"/>
      <point x="84" y="0" type="line"/>
      <point x="84" y="519" type="line"/>
      <point x="104" y="519" type="line"/>
      <point x="104" y="385" type="line"/>
      <point x="131" y="440"/>
      <point x="222" y="511"/>
      <point x="273" y="517" type="qcurve"/>
      <point x="283" y="518"/>
      <point x="300" y="519"/>
      <point x="306" y="519" type="qcurve"/>
    </contour>
    <contour>
      <point x="159" y="730" type="line"/>
      <point x="193" y="730" type="line"/>
      <point x="257" y="657" type="line"/>
      <point x="241" y="645" type="line"/>
    </contour>
    <contour>
      <point x="59" y="730" type="line"/>
      <point x="93" y="730" type="line"/>
      <point x="157" y="657" type="line"/>
      <point x="141" y="645" type="line"/>
    </contour>
  </outline>
</glyph>
<glyph name="rinvertedbreve" format="1">
  <advance width="323"/>
  <unicode hex="0213"/>
  <outline>
    <contour>
      <point x="306" y="499" type="line"/>
      <point x="232" y="496"/>
      <point x="125" y="406"/>
      <point x="104" y="328" type="qcurve"/>
      <point x="104" y="0" type="line"/>
      <point x="84" y="0" type="line"/>
      <point x="84" y="519" type="line"/>
      <point x="104" y="519" type="line"/>
      <point x="104" y="385" type="line"/>
      <point x="131" y="440"/>
      <point x="222" y="511"/>
      <point x="273" y="517" type="qcurve"/>
      <point x="283" y="518"/>
      <point x="300" y="519"/>
      <point x="306" y="519" type="qcurve"/>
    </contour>
    <contour>
      <point x="185" y="713" type="qcurve"/>
      <point x="164" y="713"/>
      <point x="130" y="676"/>
      <point x="130" y="653" type="qcurve"/>
      <point x="111" y="653" type="line"/>
      <point x="111" y="668"/>
      <point x="123" y="696"/>
      <point x="144" y="717"/>
      <point x="170" y="730"/>
      <point x="185" y="730" type="qcurve"/>
      <point x="200" y="730"/>
      <point x="226" y="717"/>
      <point x="247" y="696"/>
      <point x="259" y="668"/>
      <point x="259" y="653" type="qcurve"/>
      <point x="241" y="653" type="line"/>
      <point x="238" y="678"/>
      <point x="205" y="713"/>
    </contour>
  </outline>
</glyph>
<glyph name="breve" format="1">
  <advance width="248"/>
  <unicode hex="02D8"/>
  <outline>
    <contour>
      <point x="124" y="519" type="move" name="_top"/>
    </contour>
    <contour>
      <point x="124" y="670" type="qcurve"/>
      <point x="144" y="670"/>
      <point x="177" y="705"/>
      <point x="180" y="730" type="qcurve"/>
      <point x="198" y="730" type="line"/>
      <point x="198" y="715"/>
      <point x="186" y="687"/>
      <point x="165" y="666"/>
      <point x="139" y="653"/>
      <point x="124" y="653" type="qcurve"/>
      <point x="109" y="653"/>
      <point x="83" y="666"/>
      <point x="62" y="687"/>
      <point x="50" y="715"/>
      <point x="50" y="730" type="qcurve"/>
      <point x="69" y="730" type="line"/>
      <point x="69" y="707"/>
      <point x="103" y="670"/>
    </contour>
  </outline>
</glyph>
<glyph name="uni0311" format="1">
  <advance width="248"/>
  <unicode hex="0311"/>
  <outline>
    <contour>
      <point x="124" y="519" type="move" name="_top"/>
    </contour>
    <contour>
      <point x="124" y="713" type="qcurve"/>
      <point x="103" y="713"/>
      <point x="69" y="676"/>
      <point x="69" y="653" type="qcurve"/>
      <point x="50" y="653" type="line"/>
      <point x="50" y="668"/>
      <point x="62" y="696"/>
      <point x="83" y="717"/>
      <point x="109" y="730"/>
      <point x="124" y="730" type="qcurve"/>
      <point x="139" y="730"/>
      <point x="165" y="717"/>
      <point x="186" y="696"/>
      <point x="198" y="668"/>
      <point x="198" y="653" type="qcurve"/>
      <point x="180" y="653" type="line"/>
      <point x="177" y="678"/>
      <point x="144" y="713"/>
    </contour>
  </outline>
</glyph>
<glyph name="uni03A9" format="1">
  <advance width="770"/>
  <unicode hex="03A9"/>
  <outline>
    <contour>
      <point x="49" y="21" type="line"/>
      <point x="268" y="21" type="line"/>
      <point x="218" y="43"/>
      <point x="138" y="115"/>
      <point x="83" y="205"/>
      <point x="54" y="310"/>
      <point x="54" y="365" type="qcurve"/>
      <point x="54" y="434"/>
      <point x="104" y="561"/>
      <point x="192" y="657"/>
      <point x="313" y="715"/>
      <point x="385" y="715" type="qcurve"/>
      <point x="457" y="715"/>
      <point x="578" y="657"/>
      <point x="666" y="561"/>
      <point x="716" y="434"/>
      <point x="716" y="365" type="qcurve"/>
      <point x="716" y="310"/>
      <point x="687" y="205"/>
      <point x="632" y="115"/>
      <point x="552" y="43"/>
      <point x="502" y="21" type="qcurve"/>
      <point x="721" y="21" type="line"/>
      <point x="721" y="0" type="line"/>
      <point x="432" y="0" type="line"/>
      <point x="432" y="21" type="line"/>
      <point x="496" y="34"/>
      <point x="595" y="104"/>
      <point x="661" y="200"/>
      <point x="695" y="311"/>
      <point x="695" y="365" type="qcurve"/>
      <point x="695" y="426"/>
      <point x="652" y="544"/>
      <point x="572" y="636"/>
      <point x="457" y="693"/>
      <point x="385" y="693" type="qcurve"/>
      <point x="313" y="693"/>
      <point x="198" y="636"/>
      <point x="118" y="544"/>
      <point x="75" y="426"/>
      <point x="75" y="365" type="qcurve"/>
      <point x="75" y="311"/>
      <point x="109" y="200"/>
      <point x="175" y="104"/>
      <point x="273" y="34"/>
      <point x="338" y="21" type="qcurve"/>
      <point x="338" y="0" type="line"/>
      <point x="49" y="0" type="line"/>
    </contour>
  </outline>
</glyph>
<glyph name="pi" format="1">
  <advance width="541"/>
  <unicode hex="03C0"/>
  <outline>
    <contour>
      <point x="125" y="499" type="line"/>
      <point x="125" y="0" type="line"/>
      <point x="105" y="0" type="line"/>
      <point x="105" y="499" type="line"/>
      <point x="25" y="499" type="line"/>
      <point x="25" y="519" type="line"/>
      <point x="501" y="519" type="line"/>
      <point x="501" y="499" type="line"/>
      <point x="391" y="499" type="line"/>
      <point x="391" y="77" type="line"/>
      <point x="391" y="48"/>
      <point x="427" y="14"/>
      <point x="457" y="14" type="qcurve"/>
      <point x="468" y="14"/>
      <point x="499" y="19"/>
      <point x="512" y="23" type="qcurve"/>
      <point x="519" y="7" type="line"/>
      <point x="505" y="2"/>
      <point x="464" y="-5"/>
      <point x="450" y="-5" type="qcurve"/>
      <point x="415" y="-5"/>
      <point x="371" y="40"/>
      <point x="371" y="77" type="qcurve"/>
      <point x="371" y="499" type="line"/>
    </contour>
  </outline>
</glyph>
<glyph name="uni040A" format="1">
  <advance width="1037"/>
  <unicode hex="040A"/>
  <outline>
    <contour>
      <point x="542" y="368" type="line"/>
      <point x="119" y="368" type="line"/>
      <point x="119" y="0" type="line"/>
      <point x="99" y="0" type="line"/>
      <point x="99" y="710" type="line"/>
      <point x="119" y="710" type="line"/>
      <point x="119" y="388" type="line"/>
      <point x="542" y="388" type="line"/>
      <point x="542" y="710" type="line"/>
      <point x="562" y="710" type="line"/>
      <point x="562" y="388" type="line"/>
      <point x="787" y="388" type="line"/>
      <point x="844" y="388"/>
      <point x="927" y="360"/>
      <point x="981" y="309"/>
      <point x="1007" y="240"/>
      <point x="1007" y="199" type="qcurve"/>
      <point x="1007" y="160"/>
      <point x="981" y="88"/>
      <point x="927" y="33"/>
      <point x="845" y="0"/>
      <point x="790" y="0" type="qcurve"/>
      <point x="542" y="0" type="line"/>
    </contour>
    <contour>
      <point x="790" y="20" type="line"/>
      <point x="843" y="20"/>
      <point x="918" y="51"/>
      <point x="965" y="101"/>
      <point x="987" y="165"/>
      <point x="987" y="199" type="qcurve"/>
      <point x="987" y="232"/>
      <point x="969" y="293"/>
      <point x="923" y="340"/>
      <point x="846" y="368"/>
      <point x="787" y="368" type="qcurve"/>
      <point x="562" y="368" type="line"/>
      <point x="562" y="20" type="line"/>
    </contour>
  </outline>
</glyph>
<glyph name="uni040B" format="1">
  <advance width="685"/>
  <unicode hex="040B"/>
  <outline>
    <contour>
      <point x="624" y="180" type="line"/>
      <point x="624" y="299"/>
      <point x="528" y="406"/>
      <point x="422" y="406" type="qcurve"/>
      <point x="369" y="406"/>
      <point x="262" y="381"/>
      <point x="228" y="362" type="qcurve"/>
      <point x="228" y="0" type="line"/>
      <point x="208" y="0" type="line"/>
      <point x="208" y="690" type="line"/>
      <point x="16" y="690" type="line"/>
      <point x="16" y="710" type="line"/>
      <point x="506" y="710" type="line"/>
      <point x="506" y="690" type="line"/>
      <point x="228" y="690" type="line"/>
      <point x="228" y="384" type="line"/>
      <point x="271" y="404"/>
      <point x="365" y="426"/>
      <point x="414" y="426" type="qcurve"/>
      <point x="534" y="426"/>
      <point x="643" y="309"/>
      <point x="643" y="182" type="qcurve"/>
      <point x="643" y="0" type="line"/>
      <point x="624" y="0" type="line"/>
    </contour>
  </outline>
</glyph>
<glyph name="uni0412" format="1">
  <advance width="655"/>
  <unicode hex="0412"/>
  <outline>
    <contour>
      <point x="605" y="184" type="qcurve"/>
      <point x="605" y="147"/>
      <point x="577" y="81"/>
      <point x="529" y="30"/>
      <point x="464" y="0"/>
      <point x="428" y="0" type="qcurve"/>
      <point x="99" y="0" type="line"/>
      <point x="99" y="710" type="line"/>
      <point x="413" y="710" type="line"/>
      <point x="450" y="710"/>
      <point x="510" y="678"/>
      <point x="552" y="627"/>
      <point x="575" y="562"/>
      <point x="575" y="529" type="qcurve"/>
      <point x="575" y="475"/>
      <point x="520" y="385"/>
      <point x="473" y="364" type="qcurve"/>
      <point x="503" y="355"/>
      <point x="552" y="319"/>
      <point x="587" y="271"/>
      <point x="605" y="214"/>
    </contour>
    <contour>
      <point x="585" y="184" type="qcurve"/>
      <point x="585" y="216"/>
      <point x="562" y="275"/>
      <point x="522" y="321"/>
      <point x="467" y="348"/>
      <point x="435" y="348" type="qcurve"/>
      <point x="119" y="348" type="line"/>
      <point x="119" y="20" type="line"/>
      <point x="428" y="20" type="line"/>
      <point x="461" y="20"/>
      <point x="518" y="48"/>
      <point x="561" y="94"/>
      <point x="585" y="153"/>
    </contour>
    <contour>
      <point x="119" y="690" type="line"/>
      <point x="119" y="368" type="line"/>
      <point x="407" y="368" type="line"/>
      <point x="440" y="368"/>
      <point x="494" y="396"/>
      <point x="533" y="442"/>
      <point x="555" y="499"/>
      <point x="555" y="529" type="qcurve"/>
      <point x="555" y="561"/>
      <point x="534" y="619"/>
      <point x="497" y="664"/>
      <point x="444" y="690"/>
      <point x="413" y="690" type="qcurve"/>
    </contour>
  </outline>
</glyph>
<glyph name="uni0414" format="1">
  <advance width="681"/>
  <unicode hex="0414"/>
  <outline>
    <contour>
      <point x="16" y="20" type="line"/>
      <point x="46" y="20" type="line"/>
      <point x="63" y="25"/>
      <point x="94" y="44"/>
      <point x="121" y="86"/>
      <point x="145" y="158"/>
      <point x="167" y="274"/>
      <point x="187" y="440"/>
      <point x="196" y="556" type="qcurve"/>
      <point x="209" y="710" type="line"/>
      <point x="573" y="710" type="line"/>
      <point x="573" y="20" type="line"/>
      <point x="653" y="20" type="line"/>
      <point x="653" y="-185" type="line"/>
      <point x="633" y="-185" type="line"/>
      <point x="633" y="0" type="line"/>
      <point x="36" y="0" type="line"/>
      <point x="36" y="-185" type="line"/>
      <point x="16" y="-185" type="line"/>
    </contour>
    <contour>
      <point x="553" y="20" type="line"/>
      <point x="553" y="690" type="line"/>
      <point x="227" y="690" type="line"/>
      <point x="215" y="546" type="line"/>
      <point x="204" y="419"/>
      <point x="182" y="232"/>
      <point x="153" y="104"/>
      <point x="114" y="32"/>
      <point x="87" y="20" type="qcurve"/>
    </contour>
  </outline>
</glyph>
<glyph name="uni0418" format="1">
  <advance width="747"/>
  <unicode hex="0418"/>
  <outline>
    <contour>
      <point x="119" y="27" type="line"/>
      <point x="629" y="710" type="line"/>
      <point x="648" y="710" type="line"/>
      <point x="648" y="0" type="line"/>
      <point x="628" y="0" type="line"/>
      <point x="628" y="673" type="line"/>
      <point x="124" y="0" type="line"/>
      <point x="99" y="0" type="line"/>
      <point x="99" y="710" type="line"/>
      <point x="119" y="710" type="line"/>
    </contour>
  </outline>
</glyph>
<glyph name="uni041A" format="1">
  <advance width="560"/>
  <unicode hex="041A"/>
  <outline>
    <contour>
      <point x="119" y="381" type="line"/>
      <point x="270" y="381" type="line"/>
      <point x="499" y="710" type="line"/>
      <point x="525" y="710" type="line"/>
      <point x="284" y="371" type="line"/>
      <point x="558" y="0" type="line"/>
      <point x="532" y="0" type="line"/>
      <point x="268" y="361" type="line"/>
      <point x="119" y="361" type="line"/>
      <point x="119" y="0" type="line"/>
      <point x="99" y="0" type="line"/>
      <point x="99" y="710" type="line"/>
      <point x="119" y="710" type="line"/>
    </contour>
  </outline>
</glyph>
<glyph name="uni042B" format="1">
  <advance width="799"/>
  <unicode hex="042B"/>
  <outline>
    <contour>
      <point x="99" y="710" type="line"/>
      <point x="119" y="710" type="line"/>
      <point x="119" y="418" type="line"/>
      <point x="324" y="418" type="line"/>
      <point x="381" y="418"/>
      <point x="464" y="387"/>
      <point x="518" y="331"/>
      <point x="544" y="254"/>
      <point x="544" y="209" type="qcurve"/>
      <point x="544" y="168"/>
      <point x="518" y="92"/>
      <point x="464" y="34"/>
      <point x="382" y="0"/>
      <point x="327" y="0" type="qcurve"/>
      <point x="99" y="0" type="line"/>
    </contour>
    <contour>
      <point x="119" y="20" type="line"/>
      <point x="327" y="20" type="line"/>
      <point x="380" y="20"/>
      <point x="455" y="52"/>
      <point x="502" y="105"/>
      <point x="524" y="173"/>
      <point x="524" y="209" type="qcurve"/>
      <point x="524" y="246"/>
      <point x="506" y="314"/>
      <point x="460" y="366"/>
      <point x="383" y="398"/>
      <point x="324" y="398" type="qcurve"/>
      <point x="119" y="398" type="line"/>
    </contour>
    <contour>
      <point x="680" y="0" type="line"/>
      <point x="680" y="709" type="line"/>
      <point x="700" y="709" type="line"/>
      <point x="700" y="0" type="line"/>
    </contour>
  </outline>
</glyph>
<glyph name="uni0436" format="1">
  <advance width="732"/>
  <unicode hex="0436"/>
  <outline>
    <contour>
      <point x="65" y="520" type="line"/>
      <point x="216" y="280" type="line"/>
      <point x="356" y="280" type="line"/>
      <point x="356" y="519" type="line"/>
      <point x="377" y="519" type="line"/>
      <point x="377" y="280" type="line"/>
      <point x="517" y="280" type="line"/>
      <point x="667" y="520" type="line"/>
      <point x="692" y="520" type="line"/>
      <point x="532" y="271" type="line"/>
      <point x="716" y="0" type="line"/>
      <point x="691" y="0" type="line"/>
      <point x="517" y="261" type="line"/>
      <point x="377" y="261" type="line"/>
      <point x="377" y="0" type="line"/>
      <point x="356" y="0" type="line"/>
      <point x="356" y="261" type="line"/>
      <point x="216" y="261" type="line"/>
      <point x="41" y="0" type="line"/>
      <point x="16" y="0" type="line"/>
      <point x="200" y="271" type="line"/>
      <point x="40" y="520" type="line"/>
    </contour>
  </outline>
</glyph>
<glyph name="uni043F" format="1">
  <advance width="552"/>
  <unicode hex="043F"/>
  <outline>
    <contour>
      <point x="468" y="0" type="line"/>
      <point x="448" y="0" type="line"/>
      <point x="448" y="500" type="line"/>
      <point x="104" y="500" type="line"/>
      <point x="104" y="0" type="line"/>
      <point x="84" y="0" type="line"/>
      <point x="84" y="519" type="line"/>
      <point x="468" y="519" type="line"/>
    </contour>
  </outline>
</glyph>
<glyph name="uni044E" format="1">
  <advance width="742"/>
  <unicode hex="044E"/>
  <outline>
    <contour>
      <point x="224" y="269" type="line"/>
      <point x="225" y="328"/>
      <point x="262" y="423"/>
      <point x="325" y="491"/>
      <point x="408" y="527"/>
      <point x="456" y="527" type="qcurve"/>
      <point x="509" y="527"/>
      <point x="597" y="487"/>
      <point x="660" y="415"/>
      <point x="695" y="316"/>
      <point x="695" y="258" type="qcurve"/>
      <point x="695" y="196"/>
      <point x="658" y="97"/>
      <point x="594" y="28"/>
      <point x="507" y="-10"/>
      <point x="456" y="-10" type="qcurve"/>
      <point x="405" y="-10"/>
      <point x="321" y="28"/>
      <point x="260" y="97"/>
      <point x="225" y="193"/>
      <point x="224" y="250" type="qcurve"/>
      <point x="104" y="250" type="line"/>
      <point x="104" y="0" type="line"/>
      <point x="84" y="0" type="line"/>
      <point x="84" y="519" type="line"/>
      <point x="104" y="519" type="line"/>
      <point x="104" y="269" type="line"/>
    </contour>
    <contour>
      <point x="244" y="258" type="qcurve"/>
      <point x="244" y="201"/>
      <point x="276" y="110"/>
      <point x="332" y="45"/>
      <point x="410" y="10"/>
      <point x="456" y="10" type="qcurve"/>
      <point x="505" y="10"/>
      <point x="586" y="47"/>
      <point x="643" y="113"/>
      <point x="675" y="204"/>
      <point x="675" y="258" type="qcurve"/>
      <point x="675" y="315"/>
      <point x="641" y="407"/>
      <point x="583" y="472"/>
      <point x="502" y="507"/>
      <point x="456" y="507" type="qcurve"/>
      <point x="409" y="507"/>
      <point x="331" y="470"/>
      <point x="275" y="404"/>
      <point x="244" y="313"/>
    </contour>
  </outline>
</glyph>
<glyph name="uni0453" format="1">
  <advance width="392"/>
  <unicode hex="0453"/>
  <outline>
    <contour>
      <point x="210" y="645" type="line"/>
      <point x="194" y="657" type="line"/>
      <point x="258" y="730" type="line"/>
      <point x="292" y="730" type="line"/>
    </contour>
    <contour>
      <point x="368" y="500" type="line"/>
      <point x="104" y="500" type="line"/>
      <point x="104" y="0" type="line"/>
      <point x="84" y="0" type="line"/>
      <point x="84" y="519" type="line"/>
      <point x="368" y="519" type="line"/>
    </contour>
  </outline>
</glyph>
<glyph name="uni0454" format="1">
  <advance width="540"/>
  <unicode hex="0454"/>
  <outline>
    <contour>
      <point x="293" y="-9" type="qcurve"/>
      <point x="239" y="-9"/>
      <point x="148" y="38"/>
      <point x="82" y="115"/>
      <point x="46" y="213"/>
      <point x="46" y="263" type="qcurve"/>
      <point x="46" y="311"/>
      <point x="79" y="405"/>
      <point x="144" y="480"/>
      <point x="237" y="527"/>
      <point x="297" y="527" type="qcurve"/>
      <point x="369" y="527"/>
      <point x="466" y="462"/>
      <point x="491" y="411" type="qcurve"/>
      <point x="473" y="404" type="line"/>
      <point x="442" y="461"/>
      <point x="344" y="507"/>
      <point x="294" y="507" type="qcurve"/>
      <point x="241" y="507"/>
      <point x="158" y="467"/>
      <point x="100" y="401"/>
      <point x="68" y="318"/>
      <point x="66" y="275" type="qcurve"/>
      <point x="351" y="275" type="line"/>
      <point x="351" y="256" type="line"/>
      <point x="66" y="256" type="line"/>
      <point x="67" y="207"/>
      <point x="103" y="118"/>
      <point x="165" y="50"/>
      <point x="248" y="10"/>
      <point x="296" y="10" type="qcurve"/>
      <point x="322" y="10"/>
      <point x="376" y="23"/>
      <point x="427" y="50"/>
      <point x="470" y="91"/>
      <point x="485" y="120" type="qcurve"/>
      <point x="503" y="113" type="line"/>
      <point x="489" y="83"/>
      <point x="444" y="38"/>
      <point x="387" y="7"/>
      <point x="324" y="-9"/>
    </contour>
  </outline>
</glyph>
<glyph name="uni045A" format="1">
  <advance width="801"/>
  <unicode hex="045A"/>
  <outline>
    <contour>
      <point x="84" y="519" type="line"/>
      <point x="104" y="519" type="line"/>
      <point x="104" y="291" type="line"/>
      <point x="413" y="291" type="line"/>
      <point x="413" y="519" type="line"/>
      <point x="433" y="519" type="line"/>
      <point x="433" y="291" type="line"/>
      <point x="599" y="291" type="line"/>
      <point x="682" y="291"/>
      <point x="762" y="212"/>
      <point x="762" y="149" type="qcurve"/>
      <point x="762" y="119"/>
      <point x="742" y="64"/>
      <point x="701" y="24"/>
      <point x="641" y="0"/>
      <point x="601" y="0" type="qcurve"/>
      <point x="413" y="0" type="line"/>
      <point x="413" y="272" type="line"/>
      <point x="104" y="272" type="line"/>
      <point x="104" y="0" type="line"/>
      <point x="84" y="0" type="line"/>
    </contour>
    <contour>
      <point x="601" y="19" type="line"/>
      <point x="639" y="19"/>
      <point x="692" y="41"/>
      <point x="726" y="77"/>
      <point x="742" y="124"/>
      <point x="742" y="149" type="qcurve"/>
      <point x="742" y="173"/>
      <point x="729" y="217"/>
      <point x="696" y="252"/>
      <point x="641" y="272"/>
      <point x="599" y="272" type="qcurve"/>
      <point x="433" y="272" type="line"/>
      <point x="433" y="19" type="line"/>
    </contour>
  </outline>
</glyph>
<glyph name="uni045F" format="1">
  <advance width="535"/>
  <unicode hex="045F"/>
  <outline>
    <contour>
      <point x="257" y="0" type="line"/>
      <point x="84" y="0" type="line"/>
      <point x="84" y="519" type="line"/>
      <point x="104" y="519" type="line"/>
      <point x="104" y="19" type="line"/>
      <point x="431" y="19" type="line"/>
      <point x="431" y="519" type="line"/>
      <point x="451" y="519" type="line"/>
      <point x="451" y="0" type="line"/>
      <point x="277" y="0" type="line"/>
      <point x="277" y="-155" type="line"/>
      <point x="257" y="-155" type="line"/>
    </contour>
  </outline>
</glyph>
<glyph name="tdotbelow" format="1">
  <advance width="295"/>
  <unicode hex="1E6D"/>
  <outline>
    <contour>
      <point x="286" y="24" type="line"/>
      <point x="286" y="24"/>
      <point x="271" y="14"/>
      <point x="246" y="4"/>
      <point x="212" y="-5"/>
      <point x="191" y="-5" type="qcurve"/>
      <point x="155" y="-5"/>
      <point x="101" y="39"/>
      <point x="101" y="75" type="qcurve"/>
      <point x="101" y="499" type="line"/>
      <point x="26" y="499" type="line"/>
      <point x="26" y="519" type="line"/>
      <point x="101" y="519" type="line"/>
      <point x="101" y="700" type="line"/>
      <point x="121" y="700" type="line"/>
      <point x="121" y="519" type="line"/>
      <point x="246" y="519" type="line"/>
      <point x="246" y="499" type="line"/>
      <point x="121" y="499" type="line"/>
      <point x="121" y="75" type="line"/>
      <point x="123" y="46"/>
      <point x="165" y="15"/>
      <point x="191" y="15" type="qcurve"/>
      <point x="208" y="15"/>
      <point x="238" y="22"/>
      <point x="261" y="31"/>
      <point x="274" y="39"/>
      <point x="275" y="40" type="qcurve"/>
    </contour>
    <contour>
      <point x="174" y="-127" type="line"/>
      <point x="174" y="-50" type="line"/>
      <point x="194" y="-50" type="line"/>
      <point x="194" y="-127" type="line"/>
    </contour>
  </outline>
</glyph>
<glyph name="Zdotbelow" format="1">
  <advance width="624"/>
  <unicode hex="1E92"/>
  <outline>
    <contour>
      <point x="28" y="20" type="line"/>
      <point x="570" y="690" type="line"/>
      <point x="33" y="690" type="line"/>
      <point x="33" y="710" type="line"/>
      <point x="595" y="710" type="line"/>
      <point x="595" y="690" type="line"/>
      <point x="53" y="20" type="line"/>
      <point x="591" y="20" type="line"/>
      <point x="591" y="0" type="line"/>
      <point x="28" y="0" type="line"/>
    </contour>
    <contour>
      <point x="307" y="-127" type="line"/>
      <point x="307" y="-50" type="line"/>
      <point x="327" y="-50" type="line"/>
      <point x="327" y="-127" type="line"/>
    </contour>
  </outline>
</glyph>
<glyph name="Etilde" format="1">
  <advance width="617"/>
  <unicode hex="1EBC"/>
  <outline>
    <contour>
      <point x="565" y="20" type="line"/>
      <point x="565" y="0" type="line"/>
      <point x="99" y="0" type="line"/>
      <point x="99" y="710" type="line"/>
      <point x="556" y="710" type="line"/>
      <point x="556" y="690" type="line"/>
      <point x="119" y="690" type="line"/>
      <point x="119" y="373" type="line"/>
      <point x="502" y="373" type="line"/>
      <point x="502" y="353" type="line"/>
      <point x="119" y="353" type="line"/>
      <point x="119" y="20" type="line"/>
    </contour>
    <contour>
      <point x="405" y="851" type="qcurve"/>
      <point x="383" y="851"/>
      <point x="350" y="863"/>
      <point x="322" y="877"/>
      <point x="295" y="889"/>
      <point x="280" y="889" type="qcurve"/>
      <point x="264" y="889"/>
      <point x="244" y="876"/>
      <point x="233" y="859"/>
      <point x="229" y="843"/>
      <point x="229" y="841" type="qcurve"/>
      <point x="209" y="841" type="line"/>
      <point x="209" y="843"/>
      <point x="213" y="865"/>
      <point x="228" y="889"/>
      <point x="257" y="908"/>
      <point x="282" y="908" type="qcurve"/>
      <point x="301" y="908"/>
      <point x="331" y="896"/>
      <point x="359" y="882"/>
      <point x="388" y="870"/>
      <point x="407" y="870" type="qcurve"/>
      <point x="428" y="870"/>
      <point x="451" y="884"/>
      <point x="463" y="901"/>
      <point x="466" y="916"/>
      <point x="466" y="918" type="qcurve"/>
      <point x="486" y="918" type="line"/>
      <point x="486" y="915"/>
      <point x="481" y="893"/>
      <point x="465" y="869"/>
      <point x="432" y="851"/>
    </contour>
  </outline>
</glyph>
<glyph name="idotbelow" format="1">
  <advance width="188"/>
  <unicode hex="1ECB"/>
  <outline>
    <contour>
      <point x="84" y="0" type="line"/>
      <point x="84" y="519" type="line"/>
      <point x="104" y="519" type="line"/>
      <point x="104" y="0" type="line"/>
    </contour>
    <contour>
      <point x="84" y="653" type="line"/>
      <point x="84" y="730" type="line"/>
      <point x="104" y="730" type="line"/>
      <point x="104" y="653" type="line"/>
    </contour>
    <contour>
      <point x="84" y="-127" type="line"/>
      <point x="84" y="-50" type="line"/>
      <point x="104" y="-50" type="line"/>
      <point x="104" y="-127" type="line"/>
    </contour>
  </outline>
</glyph>
<glyph name="endash" format="1">
  <advance width="541"/>
  <unicode hex="2013"/>
  <outline>
    <contour>
      <point x="69" y="261" type="line"/>
      <point x="69" y="281" type="line"/>
      <point x="472" y="281" type="line"/>
      <point x="472" y="261" type="line"/>
    </contour>
  </outline>
</glyph>
<glyph name="quoteright" format="1">
  <advance width="165"/>
  <unicode hex="2019"/>
  <outline>
    <contour>
      <point x="71" y="570" type="line"/>
      <point x="81" y="656" type="line"/>
      <point x="72" y="656" type="line"/>
      <point x="72" y="730" type="line"/>
      <point x="98" y="730" type="line"/>
      <point x="98" y="656" type="line"/>
      <point x="85" y="570" type="line"/>
    </contour>
  </outline>
</glyph>
<glyph name="sixsuperior" format="1">
  <advance width="389"/>
  <unicode hex="2076"/>
  <outline>
    <contour>
      <point x="353" y="550" type="qcurve"/>
      <point x="353" y="523"/>
      <point x="329" y="475"/>
      <point x="288" y="439"/>
      <point x="232" y="419"/>
      <point x="200" y="419" type="qcurve"/>
      <point x="167" y="419"/>
      <point x="110" y="440"/>
      <point x="68" y="480"/>
      <point x="44" y="536"/>
      <point x="44" y="572" type="qcurve"/>
      <point x="44" y="694"/>
      <point x="132" y="810"/>
      <point x="202" y="810" type="qcurve"/>
      <point x="247" y="810"/>
      <point x="316" y="769"/>
      <point x="330" y="734" type="qcurve"/>
      <point x="315" y="724" type="line"/>
      <point x="303" y="754"/>
      <point x="241" y="792"/>
      <point x="202" y="792" type="qcurve"/>
      <point x="140" y="792"/>
      <point x="65" y="691"/>
      <point x="64" y="597" type="qcurve"/>
      <point x="78" y="635"/>
      <point x="155" y="680"/>
      <point x="203" y="680" type="qcurve"/>
      <point x="234" y="680"/>
      <point x="289" y="660"/>
      <point x="329" y="624"/>
      <point x="353" y="577"/>
    </contour>
    <contour>
      <point x="201" y="437" type="qcurve"/>
      <point x="228" y="437"/>
      <point x="277" y="455"/>
      <point x="313" y="485"/>
      <point x="334" y="526"/>
      <point x="334" y="549" type="qcurve"/>
      <point x="334" y="572"/>
      <point x="313" y="614"/>
      <point x="276" y="645"/>
      <point x="227" y="663"/>
      <point x="200" y="663" type="qcurve"/>
      <point x="173" y="663"/>
      <point x="124" y="645"/>
      <point x="88" y="614"/>
      <point x="67" y="573"/>
      <point x="67" y="550" type="qcurve"/>
      <point x="67" y="527"/>
      <point x="88" y="486"/>
      <point x="125" y="455"/>
      <point x="174" y="437"/>
    </contour>
  </outline>
</glyph>
<glyph name="oneinferior" format="1">
  <advance width="252"/>
  <unicode hex="2081"/>
  <outline>
    <contour>
      <point x="230" y="-61" type="line"/>
      <point x="230" y="-80" type="line"/>
      <point x="49" y="-80" type="line"/>
      <point x="49" y="-61" type="line"/>
      <point x="132" y="-61" type="line"/>
      <point x="132" y="283" type="line"/>
      <point x="127" y="277"/>
      <point x="104" y="260"/>
      <point x="77" y="246"/>
      <point x="47" y="236"/>
      <point x="35" y="236" type="qcurve"/>
      <point x="35" y="255" type="line"/>
      <point x="51" y="255"/>
      <point x="85" y="271"/>
      <point x="113" y="291"/>
      <point x="131" y="308"/>
      <point x="132" y="309" type="qcurve"/>
      <point x="152" y="309" type="line"/>
      <point x="152" y="-61" type="line"/>
    </contour>
  </outline>
</glyph>
<glyph name="fiveinferior" format="1">
  <advance width="361"/>
  <unicode hex="2085"/>
  <outline>
    <contour>
      <point x="180" y="161" type="qcurve"/>
      <point x="210" y="161"/>
      <point x="262" y="143"/>
      <point x="301" y="112"/>
      <point x="324" y="67"/>
      <point x="324" y="40" type="qcurve"/>
      <point x="324" y="12"/>
      <point x="300" y="-34"/>
      <point x="260" y="-67"/>
      <point x="206" y="-85"/>
      <point x="176" y="-85" type="qcurve"/>
      <point x="129" y="-85"/>
      <point x="55" y="-43"/>
      <point x="37" y="-8" type="qcurve"/>
      <point x="54" y="-2" type="line"/>
      <point x="71" y="-31"/>
      <point x="136" y="-67"/>
      <point x="177" y="-67" type="qcurve"/>
      <point x="204" y="-67"/>
      <point x="250" y="-51"/>
      <point x="285" y="-23"/>
      <point x="304" y="16"/>
      <point x="304" y="39" type="qcurve"/>
      <point x="304" y="64"/>
      <point x="282" y="102"/>
      <point x="246" y="128"/>
      <point x="201" y="142"/>
      <point x="177" y="142" type="qcurve"/>
      <point x="143" y="142"/>
      <point x="84" y="116"/>
      <point x="66" y="93" type="qcurve"/>
      <point x="45" y="93" type="line"/>
      <point x="48" y="105"/>
      <point x="63" y="171"/>
      <point x="80" y="243"/>
      <point x="94" y="300"/>
      <point x="94" y="303" type="qcurve"/>
      <point x="304" y="303" type="line"/>
      <point x="304" y="284" type="line"/>
      <point x="110" y="284" type="line"/>
      <point x="72" y="122" type="line"/>
      <point x="93" y="142"/>
      <point x="149" y="161"/>
    </contour>
  </outline>
</glyph>
<glyph name="sixinferior" format="1">
  <advance width="389"/>
  <unicode hex="2086"/>
  <outline>
    <contour>
      <point x="353" y="46" type="qcurve"/>
      <point x="353" y="19"/>
      <point x="329" y="-29"/>
      <point x="288" y="-65"/>
      <point x="232" y="-85"/>
      <point x="200" y="-85" type="qcurve"/>
      <point x="167" y="-85"/>
      <point x="110" y="-64"/>
      <point x="68" y="-24"/>
      <point x="44" y="32"/>
      <point x="44" y="68" type="qcurve"/>
      <point x="44" y="190"/>
      <point x="132" y="306"/>
      <point x="202" y="306" type="qcurve"/>
      <point x="247" y="306"/>
      <point x="316" y="265"/>
      <point x="330" y="230" type="qcurve"/>
      <point x="315" y="220" type="line"/>
      <point x="303" y="250"/>
      <point x="241" y="288"/>
      <point x="202" y="288" type="qcurve"/>
      <point x="140" y="288"/>
      <point x="65" y="187"/>
      <point x="64" y="93" type="qcurve"/>
      <point x="78" y="131"/>
      <point x="155" y="176"/>
      <point x="203" y="176" type="qcurve"/>
      <point x="234" y="176"/>
      <point x="289" y="156"/>
      <point x="329" y="120"/>
      <point x="353" y="73"/>
    </contour>
    <contour>
      <point x="201" y="-67" type="qcurve"/>
      <point x="228" y="-67"/>
      <point x="277" y="-49"/>
      <point x="313" y="-19"/>
      <point x="334" y="22"/>
      <point x="334" y="45" type="qcurve"/>
      <point x="334" y="68"/>
      <point x="313" y="110"/>
      <point x="276" y="141"/>
      <point x="227" y="159"/>
      <point x="200" y="159" type="qcurve"/>
      <point x="173" y="159"/>
      <point x="124" y="141"/>
      <point x="88" y="110"/>
      <point x="67" y="69"/>
      <point x="67" y="46" type="qcurve"/>
      <point x="67" y="23"/>
      <point x="88" y="-18"/>
      <point x="125" y="-49"/>
      <point x="174" y="-67"/>
    </contour>
  </outline>
</glyph>
<glyph name="eightinferior" format="1">
  <advance width="382"/>
  <unicode hex="2088"/>
  <outline>
    <contour>
      <point x="339" y="23" type="qcurve"/>
      <point x="339" y="-1"/>
      <point x="315" y="-41"/>
      <point x="273" y="-69"/>
      <point x="219" y="-84"/>
      <point x="189" y="-84" type="qcurve"/>
      <point x="156" y="-84"/>
      <point x="101" y="-66"/>
      <point x="63" y="-36"/>
      <point x="42" y="3"/>
      <point x="42" y="25" type="qcurve"/>
      <point x="42" y="44"/>
      <point x="59" y="77"/>
      <point x="87" y="103"/>
      <point x="122" y="121"/>
      <point x="140" y="126" type="qcurve"/>
      <point x="107" y="137"/>
      <point x="58" y="179"/>
      <point x="58" y="210" type="qcurve"/>
      <point x="58" y="232"/>
      <point x="81" y="267"/>
      <point x="119" y="291"/>
      <point x="167" y="303"/>
      <point x="191" y="303" type="qcurve"/>
      <point x="215" y="303"/>
      <point x="263" y="291"/>
      <point x="300" y="267"/>
      <point x="323" y="232"/>
      <point x="323" y="210" type="qcurve"/>
      <point x="323" y="179"/>
      <point x="274" y="136"/>
      <point x="240" y="126" type="qcurve"/>
      <point x="282" y="115"/>
      <point x="339" y="61"/>
    </contour>
    <contour>
      <point x="319" y="25" type="qcurve"/>
      <point x="319" y="47"/>
      <point x="295" y="81"/>
      <point x="258" y="105"/>
      <point x="212" y="117"/>
      <point x="190" y="117" type="qcurve"/>
      <point x="167" y="117"/>
      <point x="121" y="104"/>
      <point x="85" y="79"/>
      <point x="62" y="45"/>
      <point x="62" y="24" type="qcurve"/>
      <point x="62" y="3"/>
      <point x="86" y="-31"/>
      <point x="123" y="-54"/>
      <point x="169" y="-66"/>
      <point x="191" y="-66" type="qcurve"/>
      <point x="214" y="-66"/>
      <point x="260" y="-53"/>
      <point x="296" y="-30"/>
      <point x="319" y="4"/>
    </contour>
    <contour>
      <point x="78" y="209" type="qcurve"/>
      <point x="78" y="191"/>
      <point x="99" y="163"/>
      <point x="131" y="144"/>
      <point x="171" y="134"/>
      <point x="190" y="134" type="qcurve"/>
      <point x="209" y="134"/>
      <point x="250" y="144"/>
      <point x="282" y="164"/>
      <point x="303" y="192"/>
      <point x="303" y="210" type="qcurve"/>
      <point x="303" y="228"/>
      <point x="284" y="255"/>
      <point x="252" y="275"/>
      <point x="211" y="285"/>
      <point x="190" y="285" type="qcurve"/>
      <point x="168" y="285"/>
      <point x="128" y="274"/>
      <point x="97" y="255"/>
      <point x="78" y="227"/>
    </contour>
  </outline>
</glyph>
<glyph name="nineinferior" format="1">
  <advance width="389"/>
  <unicode hex="2089"/>
  <outline>
    <contour>
      <point x="36" y="175" type="qcurve"/>
      <point x="36" y="202"/>
      <point x="60" y="250"/>
      <point x="101" y="286"/>
      <point x="157" y="306"/>
      <point x="189" y="306" type="qcurve"/>
      <point x="222" y="306"/>
      <point x="279" y="285"/>
      <point x="321" y="245"/>
      <point x="345" y="189"/>
      <point x="345" y="153" type="qcurve"/>
      <point x="345" y="91"/>
      <point x="322" y="2"/>
      <point x="280" y="-57"/>
      <point x="222" y="-85"/>
      <point x="187" y="-85" type="qcurve"/>
      <point x="142" y="-85"/>
      <point x="73" y="-44"/>
      <point x="59" y="-9" type="qcurve"/>
      <point x="74" y="1" type="line"/>
      <point x="86" y="-30"/>
      <point x="148" y="-67"/>
      <point x="187" y="-67" type="qcurve"/>
      <point x="249" y="-67"/>
      <point x="325" y="34"/>
      <point x="325" y="127" type="qcurve"/>
      <point x="311" y="90"/>
      <point x="233" y="44"/>
      <point x="186" y="44" type="qcurve"/>
      <point x="155" y="44"/>
      <point x="100" y="65"/>
      <point x="60" y="100"/>
      <point x="36" y="148"/>
    </contour>
    <contour>
      <point x="188" y="288" type="qcurve"/>
      <point x="161" y="288"/>
      <point x="113" y="270"/>
      <point x="77" y="240"/>
      <point x="56" y="199"/>
      <point x="56" y="176" type="qcurve"/>
      <point x="56" y="153"/>
      <point x="77" y="111"/>
      <point x="114" y="80"/>
      <point x="162" y="62"/>
      <point x="189" y="62" type="qcurve"/>
      <point x="216" y="62"/>
      <point x="265" y="80"/>
      <point x="301" y="111"/>
      <point x="322" y="152"/>
      <point x="322" y="175" type="qcurve"/>
      <point x="322" y="198"/>
      <point x="301" y="239"/>
      <point x="264" y="270"/>
      <point x="215" y="288"/>
    </contour>
  </outline>
</glyph>
<glyph name="colonmonetary" format="1">
  <advance width="537"/>
  <unicode hex="20A1"/>
  <outline>
    <contour>
      <point x="232" y="-1" type="line"/>
      <point x="191" y="10"/>
      <point x="123" y="60"/>
      <point x="72" y="129"/>
      <point x="44" y="215"/>
      <point x="44" y="262" type="qcurve"/>
      <point x="44" y="309"/>
      <point x="72" y="393"/>
      <point x="122" y="461"/>
      <point x="191" y="508"/>
      <point x="232" y="519" type="qcurve"/>
      <point x="232" y="645" type="line"/>
      <point x="252" y="645" type="line"/>
      <point x="252" y="523" type="line"/>
      <point x="269" y="527"/>
      <point x="294" y="527" type="qcurve"/>
      <point x="301" y="527"/>
      <point x="315" y="526"/>
      <point x="322" y="525" type="qcurve"/>
      <point x="322" y="645" type="line"/>
      <point x="342" y="645" type="line"/>
      <point x="342" y="522" type="line"/>
      <point x="391" y="512"/>
      <point x="467" y="456"/>
      <point x="489" y="411" type="qcurve"/>
      <point x="469" y="404" type="line"/>
      <point x="443" y="452"/>
      <point x="348" y="507"/>
      <point x="291" y="507" type="qcurve"/>
      <point x="243" y="507"/>
      <point x="161" y="469"/>
      <point x="99" y="403"/>
      <point x="64" y="313"/>
      <point x="64" y="262" type="qcurve"/>
      <point x="64" y="211"/>
      <point x="100" y="119"/>
      <point x="163" y="50"/>
      <point x="245" y="10"/>
      <point x="292" y="10" type="qcurve"/>
      <point x="322" y="10"/>
      <point x="383" y="28"/>
      <point x="434" y="58"/>
      <point x="470" y="98"/>
      <point x="476" y="119" type="qcurve"/>
      <point x="496" y="113" type="line"/>
      <point x="482" y="69"/>
      <point x="396" y="6"/>
      <point x="342" y="-5" type="qcurve"/>
      <point x="342" y="-120" type="line"/>
      <point x="322" y="-120" type="line"/>
      <point x="322" y="-8" type="line"/>
      <point x="315" y="-9"/>
      <point x="302" y="-10"/>
      <point x="295" y="-10" type="qcurve"/>
      <point x="284" y="-10"/>
      <point x="263" y="-8"/>
      <point x="252" y="-6" type="qcurve"/>
      <point x="252" y="-120" type="line"/>
      <point x="232" y="-120" type="line"/>
    </contour>
  </outline>
</glyph>
<glyph name="estimated" format="1">
  <advance width="612"/>
  <unicode hex="212E"/>
  <outline>
    <contour>
      <point x="310" y="10" type="qcurve"/>
      <point x="379" y="10"/>
      <point x="483" y="54"/>
      <point x="512" y="88" type="qcurve"/>
      <point x="525" y="73" type="line"/>
      <point x="490" y="38"/>
      <point x="385" y="-10"/>
      <point x="310" y="-10" type="qcurve"/>
      <point x="251" y="-10"/>
      <point x="154" y="34"/>
      <point x="85" y="108"/>
      <point x="47" y="206"/>
      <point x="47" y="260" type="qcurve"/>
      <point x="47" y="315"/>
      <point x="86" y="413"/>
      <point x="155" y="487"/>
      <point x="252" y="531"/>
      <point x="310" y="531" type="qcurve"/>
      <point x="368" y="531"/>
      <point x="466" y="487"/>
      <point x="535" y="412"/>
      <point x="574" y="312"/>
      <point x="574" y="255" type="qcurve"/>
      <point x="119" y="255" type="line"/>
      <point x="119" y="105" type="line"/>
      <point x="152" y="61"/>
      <point x="251" y="10"/>
    </contour>
    <contour>
      <point x="310" y="511" type="qcurve"/>
      <point x="251" y="511"/>
      <point x="152" y="459"/>
      <point x="119" y="414" type="qcurve"/>
      <point x="119" y="275" type="line"/>
      <point x="503" y="275" type="line"/>
      <point x="503" y="413" type="line"/>
      <point x="469" y="458"/>
      <point x="367" y="511"/>
    </contour>
  </outline>
</glyph>
<glyph name="twothirds" format="1">
  <advance width="804"/>
  <unicode hex="2154"/>
  <outline>
    <contour>
      <point x="131" y="11" type="line"/>
      <point x="689" y="711" type="line"/>
      <point x="705" y="699" type="line"/>
      <point x="147" y="-1" type="line"/>
    </contour>
    <contour>
      <point x="618" y="-5" type="qcurve"/>
      <point x="587" y="-5"/>
      <point x="534" y="9"/>
      <point x="494" y="35"/>
      <point x="470" y="70"/>
      <point x="469" y="91" type="qcurve"/>
      <point x="485" y="98" type="line"/>
      <point x="486" y="81"/>
      <point x="507" y="51"/>
      <point x="543" y="28"/>
      <point x="591" y="14"/>
      <point x="618" y="14" type="qcurve"/>
      <point x="645" y="14"/>
      <point x="691" y="27"/>
      <point x="726" y="49"/>
      <point x="745" y="81"/>
      <point x="745" y="99" type="qcurve"/>
      <point x="745" y="139"/>
      <point x="663" y="186"/>
      <point x="596" y="186" type="qcurve"/>
      <point x="574" y="186" type="line"/>
      <point x="574" y="204" type="line"/>
      <point x="596" y="204" type="line"/>
      <point x="662" y="204"/>
      <point x="732" y="243"/>
      <point x="732" y="281" type="qcurve"/>
      <point x="732" y="320"/>
      <point x="663" y="370"/>
      <point x="610" y="370" type="qcurve"/>
      <point x="568" y="370"/>
      <point x="504" y="336"/>
      <point x="491" y="310" type="qcurve"/>
      <point x="476" y="322" type="line"/>
      <point x="491" y="352"/>
      <point x="564" y="388"/>
      <point x="610" y="388" type="qcurve"/>
      <point x="641" y="388"/>
      <point x="693" y="372"/>
      <point x="731" y="343"/>
      <point x="753" y="304"/>
      <point x="753" y="282" type="qcurve"/>
      <point x="753" y="215"/>
      <point x="664" y="195" type="qcurve"/>
      <point x="710" y="187"/>
      <point x="765" y="134"/>
      <point x="765" y="97" type="qcurve"/>
      <point x="765" y="75"/>
      <point x="742" y="37"/>
      <point x="702" y="10"/>
      <point x="649" y="-5"/>
    </contour>
    <contour>
      <point x="48" y="343" type="line"/>
      <point x="48" y="417"/>
      <point x="114" y="495"/>
      <point x="171" y="516" type="qcurve"/>
      <point x="193" y="524"/>
      <point x="243" y="540"/>
      <point x="284" y="563"/>
      <point x="311" y="597"/>
      <point x="311" y="623" type="qcurve"/>
      <point x="311" y="640"/>
      <point x="297" y="672"/>
      <point x="269" y="697"/>
      <point x="227" y="712"/>
      <point x="198" y="712" type="qcurve"/>
      <point x="171" y="712"/>
      <point x="128" y="699"/>
      <point x="96" y="681"/>
      <point x="74" y="660"/>
      <point x="68" y="652" type="qcurve"/>
      <point x="53" y="664" type="line"/>
      <point x="54" y="666"/>
      <point x="73" y="687"/>
      <point x="109" y="711"/>
      <point x="164" y="731"/>
      <point x="200" y="731" type="qcurve"/>
      <point x="234" y="731"/>
      <point x="283" y="713"/>
      <point x="316" y="683"/>
      <point x="332" y="643"/>
      <point x="332" y="622" type="qcurve"/>
      <point x="332" y="592"/>
      <point x="302" y="553"/>
      <point x="258" y="527"/>
      <point x="207" y="510"/>
      <point x="186" y="503" type="qcurve"/>
      <point x="147" y="489"/>
      <point x="101" y="453"/>
      <point x="79" y="415"/>
      <point x="73" y="377"/>
      <point x="73" y="362" type="qcurve"/>
      <point x="333" y="362" type="line"/>
      <point x="333" y="343" type="line"/>
    </contour>
  </outline>
</glyph>
<glyph name="threeeighths" format="1">
  <advance width="793"/>
  <unicode hex="215C"/>
  <outline>
    <contour>
      <point x="110" y="11" type="line"/>
      <point x="668" y="711" type="line"/>
      <point x="684" y="699" type="line"/>
      <point x="126" y="-1" type="line"/>
    </contour>
    <contour>
      <point x="756" y="103" type="qcurve"/>
      <point x="756" y="79"/>
      <point x="732" y="39"/>
      <point x="690" y="11"/>
      <point x="636" y="-4"/>
      <point x="606" y="-4" type="qcurve"/>
      <point x="573" y="-4"/>
      <point x="518" y="14"/>
      <point x="480" y="44"/>
      <point x="459" y="83"/>
      <point x="459" y="105" type="qcurve"/>
      <point x="459" y="124"/>
      <point x="476" y="157"/>
      <point x="504" y="183"/>
      <point x="539" y="201"/>
      <point x="557" y="206" type="qcurve"/>
      <point x="524" y="217"/>
      <point x="475" y="259"/>
      <point x="475" y="290" type="qcurve"/>
      <point x="475" y="312"/>
      <point x="498" y="347"/>
      <point x="536" y="371"/>
      <point x="584" y="383"/>
      <point x="608" y="383" type="qcurve"/>
      <point x="632" y="383"/>
      <point x="680" y="371"/>
      <point x="717" y="347"/>
      <point x="740" y="312"/>
      <point x="740" y="290" type="qcurve"/>
      <point x="740" y="259"/>
      <point x="691" y="216"/>
      <point x="657" y="206" type="qcurve"/>
      <point x="699" y="195"/>
      <point x="756" y="141"/>
    </contour>
    <contour>
      <point x="736" y="105" type="qcurve"/>
      <point x="736" y="127"/>
      <point x="712" y="161"/>
      <point x="675" y="185"/>
      <point x="629" y="197"/>
      <point x="607" y="197" type="qcurve"/>
      <point x="584" y="197"/>
      <point x="538" y="184"/>
      <point x="502" y="159"/>
      <point x="479" y="125"/>
      <point x="479" y="104" type="qcurve"/>
      <point x="479" y="83"/>
      <point x="503" y="49"/>
      <point x="540" y="26"/>
      <point x="586" y="14"/>
      <point x="608" y="14" type="qcurve"/>
      <point x="631" y="14"/>
      <point x="677" y="27"/>
      <point x="713" y="50"/>
      <point x="736" y="84"/>
    </contour>
    <contour>
      <point x="495" y="289" type="qcurve"/>
      <point x="495" y="271"/>
      <point x="516" y="243"/>
      <point x="548" y="224"/>
      <point x="588" y="214"/>
      <point x="607" y="214" type="qcurve"/>
      <point x="626" y="214"/>
      <point x="667" y="224"/>
      <point x="699" y="244"/>
      <point x="720" y="272"/>
      <point x="720" y="290" type="qcurve"/>
      <point x="720" y="308"/>
      <point x="701" y="335"/>
      <point x="669" y="355"/>
      <point x="628" y="365"/>
      <point x="607" y="365" type="qcurve"/>
      <point x="585" y="365"/>
      <point x="545" y="354"/>
      <point x="514" y="335"/>
      <point x="495" y="307"/>
    </contour>
    <contour>
      <point x="195" y="338" type="qcurve"/>
      <point x="164" y="338"/>
      <point x="111" y="352"/>
      <point x="71" y="378"/>
      <point x="47" y="413"/>
      <point x="46" y="434" type="qcurve"/>
      <point x="62" y="441" type="line"/>
      <point x="63" y="424"/>
      <point x="84" y="394"/>
      <point x="120" y="371"/>
      <point x="168" y="357"/>
      <point x="195" y="357" type="qcurve"/>
      <point x="222" y="357"/>
      <point x="268" y="370"/>
      <point x="303" y="392"/>
      <point x="322" y="424"/>
      <point x="322" y="442" type="qcurve"/>
      <point x="322" y="482"/>
      <point x="240" y="529"/>
      <point x="173" y="529" type="qcurve"/>
      <point x="151" y="529" type="line"/>
      <point x="151" y="547" type="line"/>
      <point x="173" y="547" type="line"/>
      <point x="239" y="547"/>
      <point x="309" y="586"/>
      <point x="309" y="624" type="qcurve"/>
      <point x="309" y="663"/>
      <point x="240" y="713"/>
      <point x="187" y="713" type="qcurve"/>
      <point x="145" y="713"/>
      <point x="81" y="679"/>
      <point x="68" y="653" type="qcurve"/>
      <point x="53" y="665" type="line"/>
      <point x="68" y="695"/>
      <point x="141" y="731"/>
      <point x="187" y="731" type="qcurve"/>
      <point x="218" y="731"/>
      <point x="270" y="715"/>
      <point x="308" y="686"/>
      <point x="330" y="647"/>
      <point x="330" y="625" type="qcurve"/>
      <point x="330" y="558"/>
      <point x="241" y="538" type="qcurve"/>
      <point x="287" y="530"/>
      <point x="342" y="477"/>
      <point x="342" y="440" type="qcurve"/>
      <point x="342" y="418"/>
      <point x="319" y="380"/>
      <point x="279" y="353"/>
      <point x="226" y="338"/>
    </contour>
  </outline>
</glyph>
<glyph name="fiveeighths" format="1">
  <advance width="788"/>
  <unicode hex="215D"/>
  <outline>
    <contour>
      <point x="98" y="11" type="line"/>
      <point x="656" y="711" type="line"/>
      <point x="672" y="699" type="line"/>
      <point x="114" y="-1" type="line"/>
    </contour>
    <contour>
      <point x="752" y="103" type="qcurve"/>
      <point x="752" y="79"/>
      <point x="728" y="39"/>
      <point x="686" y="11"/>
      <point x="632" y="-4"/>
      <point x="602" y="-4" type="qcurve"/>
      <point x="569" y="-4"/>
      <point x="514" y="14"/>
      <point x="476" y="44"/>
      <point x="455" y="83"/>
      <point x="455" y="105" type="qcurve"/>
      <point x="455" y="124"/>
      <point x="472" y="157"/>
      <point x="500" y="183"/>
      <point x="535" y="201"/>
      <point x="553" y="206" type="qcurve"/>
      <point x="520" y="217"/>
      <point x="471" y="259"/>
      <point x="471" y="290" type="qcurve"/>
      <point x="471" y="312"/>
      <point x="494" y="347"/>
      <point x="532" y="371"/>
      <point x="580" y="383"/>
      <point x="604" y="383" type="qcurve"/>
      <point x="628" y="383"/>
      <point x="676" y="371"/>
      <point x="713" y="347"/>
      <point x="736" y="312"/>
      <point x="736" y="290" type="qcurve"/>
      <point x="736" y="259"/>
      <point x="687" y="216"/>
      <point x="653" y="206" type="qcurve"/>
      <point x="695" y="195"/>
      <point x="752" y="141"/>
    </contour>
    <contour>
      <point x="732" y="105" type="qcurve"/>
      <point x="732" y="127"/>
      <point x="708" y="161"/>
      <point x="671" y="185"/>
      <point x="625" y="197"/>
      <point x="603" y="197" type="qcurve"/>
      <point x="580" y="197"/>
      <point x="534" y="184"/>
      <point x="498" y="159"/>
      <point x="475" y="125"/>
      <point x="475" y="104" type="qcurve"/>
      <point x="475" y="83"/>
      <point x="499" y="49"/>
      <point x="536" y="26"/>
      <point x="582" y="14"/>
      <point x="604" y="14" type="qcurve"/>
      <point x="627" y="14"/>
      <point x="673" y="27"/>
      <point x="709" y="50"/>
      <point x="732" y="84"/>
    </contour>
    <contour>
      <point x="491" y="289" type="qcurve"/>
      <point x="491" y="271"/>
      <point x="512" y="243"/>
      <point x="544" y="224"/>
      <point x="584" y="214"/>
      <point x="603" y="214" type="qcurve"/>
      <point x="622" y="214"/>
      <point x="663" y="224"/>
      <point x="695" y="244"/>
      <point x="716" y="272"/>
      <point x="716" y="290" type="qcurve"/>
      <point x="716" y="308"/>
      <point x="697" y="335"/>
      <point x="665" y="355"/>
      <point x="624" y="365"/>
      <point x="603" y="365" type="qcurve"/>
      <point x="581" y="365"/>
      <point x="541" y="354"/>
      <point x="510" y="335"/>
      <point x="491" y="307"/>
    </contour>
    <contour>
      <point x="183" y="588" type="qcurve"/>
      <point x="213" y="588"/>
      <point x="265" y="570"/>
      <point x="304" y="539"/>
      <point x="327" y="494"/>
      <point x="327" y="467" type="qcurve"/>
      <point x="327" y="439"/>
      <point x="303" y="393"/>
      <point x="263" y="360"/>
      <point x="209" y="342"/>
      <point x="179" y="342" type="qcurve"/>
      <point x="132" y="342"/>
      <point x="58" y="384"/>
      <point x="40" y="419" type="qcurve"/>
      <point x="57" y="425" type="line"/>
      <point x="74" y="396"/>
      <point x="139" y="360"/>
      <point x="180" y="360" type="qcurve"/>
      <point x="207" y="360"/>
      <point x="253" y="376"/>
      <point x="288" y="404"/>
      <point x="307" y="443"/>
      <point x="307" y="466" type="qcurve"/>
      <point x="307" y="491"/>
      <point x="285" y="529"/>
      <point x="249" y="555"/>
      <point x="204" y="569"/>
      <point x="180" y="569" type="qcurve"/>
      <point x="146" y="569"/>
      <point x="87" y="543"/>
      <point x="69" y="520" type="qcurve"/>
      <point x="48" y="520" type="line"/>
      <point x="51" y="532"/>
      <point x="66" y="598"/>
      <point x="83" y="670"/>
      <point x="97" y="727"/>
      <point x="97" y="730" type="qcurve"/>
      <point x="307" y="730" type="line"/>
      <point x="307" y="711" type="line"/>
      <point x="113" y="711" type="line"/>
      <point x="75" y="549" type="line"/>
      <point x="96" y="569"/>
      <point x="152" y="588"/>
    </contour>
  </outline>
</glyph>
<glyph name="f_f" format="1">
  <advance width="537"/>
  <unicode hex="FB00"/>
  <outline>
    <contour>
      <point x="477" y="720" type="qcurve"/>
      <point x="435" y="720"/>
      <point x="379" y="687"/>
      <point x="345" y="634"/>
      <point x="330" y="570"/>
      <point x="330" y="540" type="qcurve"/>
      <point x="330" y="519" type="line"/>
      <point x="515" y="519" type="line"/>
      <point x="515" y="499" type="line"/>
      <point x="330" y="499" type="line"/>
      <point x="330" y="0" type="line"/>
      <point x="310" y="0" type="line"/>
      <point x="310" y="499" type="line"/>
      <point x="123" y="499" type="line"/>
      <point x="123" y="0" type="line"/>
      <point x="103" y="0" type="line"/>
      <point x="103" y="499" type="line"/>
      <point x="28" y="499" type="line"/>
      <point x="28" y="519" type="line"/>
      <point x="103" y="519" type="line"/>
      <point x="103" y="530" type="line"/>
      <point x="103" y="560"/>
      <point x="118" y="621"/>
      <point x="153" y="670"/>
      <point x="208" y="700"/>
      <point x="249" y="700" type="qcurve"/>
      <point x="283" y="700"/>
      <point x="336" y="682"/>
      <point x="347" y="674" type="qcurve"/>
      <point x="367" y="704"/>
      <point x="427" y="740"/>
      <point x="474" y="740" type="qcurve"/>
      <point x="499" y="740"/>
      <point x="533" y="730"/>
      <point x="554" y="718"/>
      <point x="562" y="707"/>
      <point x="562" y="706" type="qcurve"/>
      <point x="546" y="694" type="line"/>
      <point x="544" y="697"/>
      <point x="535" y="705"/>
      <point x="519" y="714"/>
      <point x="495" y="720"/>
    </contour>
    <contour>
      <point x="310" y="519" type="line"/>
      <point x="310" y="563"/>
      <point x="323" y="629"/>
      <point x="337" y="656" type="qcurve"/>
      <point x="319" y="671"/>
      <point x="266" y="680"/>
      <point x="250" y="680" type="qcurve"/>
      <point x="212" y="680"/>
      <point x="162" y="650"/>
      <point x="134" y="605"/>
      <point x="123" y="552"/>
      <point x="123" y="530" type="qcurve"/>
      <point x="123" y="519" type="line"/>
    </contour>
  </outline>
</glyph>
<glyph name="f_f_l" format="1">
  <advance width="740"/>
  <unicode hex="FB04"/>
  <outline>
    <contour>
      <point x="676" y="-5" type="qcurve"/>
      <point x="632" y="-5"/>
      <point x="591" y="44"/>
      <point x="591" y="77" type="qcurve"/>
      <point x="591" y="613" type="line"/>
      <point x="591" y="634"/>
      <point x="576" y="673"/>
      <point x="546" y="702"/>
      <point x="502" y="720"/>
      <point x="473" y="720" type="qcurve"/>
      <point x="434" y="720"/>
      <point x="381" y="688"/>
      <point x="349" y="637"/>
      <point x="335" y="572"/>
      <point x="335" y="540" type="qcurve"/>
      <point x="335" y="519" type="line"/>
      <point x="460" y="519" type="line"/>
      <point x="460" y="499" type="line"/>
      <point x="335" y="499" type="line"/>
      <point x="335" y="0" type="line"/>
      <point x="315" y="0" type="line"/>
      <point x="315" y="499" type="line"/>
      <point x="123" y="499" type="line"/>
      <point x="123" y="0" type="line"/>
      <point x="103" y="0" type="line"/>
      <point x="103" y="499" type="line"/>
      <point x="28" y="499" type="line"/>
      <point x="28" y="519" type="line"/>
      <point x="103" y="519" type="line"/>
      <point x="103" y="528" type="line"/>
      <point x="103" y="565"/>
      <point x="122" y="628"/>
      <point x="160" y="674"/>
      <point x="219" y="700"/>
      <point x="258" y="700" type="qcurve"/>
      <point x="293" y="700"/>
      <point x="335" y="683"/>
      <point x="346" y="675" type="qcurve"/>
      <point x="364" y="705"/>
      <point x="423" y="740"/>
      <point x="468" y="740" type="qcurve"/>
      <point x="502" y="740"/>
      <point x="555" y="720"/>
      <point x="592" y="686"/>
      <point x="611" y="640"/>
      <point x="611" y="614" type="qcurve"/>
      <point x="611" y="77" type="line"/>
      <point x="611" y="56"/>
      <point x="641" y="14"/>
      <point x="674" y="14" type="qcurve"/>
      <point x="691" y="14"/>
      <point x="730" y="23"/>
      <point x="732" y="23" type="qcurve"/>
      <point x="741" y="4" type="line"/>
      <point x="741" y="4"/>
      <point x="728" y="1"/>
      <point x="708" y="-2"/>
      <point x="686" y="-5"/>
    </contour>
    <contour>
      <point x="315" y="519" type="line"/>
      <point x="315" y="567"/>
      <point x="325" y="632"/>
      <point x="336" y="657" type="qcurve"/>
      <point x="319" y="671"/>
      <point x="276" y="680"/>
      <point x="259" y="680" type="qcurve"/>
      <point x="221" y="680"/>
      <point x="169" y="653"/>
      <point x="137" y="610"/>
      <point x="123" y="555"/>
      <point x="123" y="528" type="qcurve"/>
      <point x="123" y="519" type="line"/>
    </contour>
  </outline>
</glyph>
<glyph name="F.sc" format="1">
  <advance width="519"/>
  <outline>
    <contour>
      <point x="95" y="0" type="line"/>
      <point x="95" y="540" type="line"/>
      <point x="470" y="540" type="line"/>
      <point x="470" y="520" type="line"/>
      <point x="115" y="520" type="line"/>
      <point x="115" y="286" type="line"/>
      <point x="418" y="286" type="line"/>
      <point x="418" y="266" type="line"/>
      <point x="115" y="266" type="line"/>
      <point x="115" y="0" type="line"/>
    </contour>
  </outline>
</glyph>
<glyph name="K.sc" format="1">
  <advance width="539"/>
  <outline>
    <contour>
      <point x="318" y="0" type="move" name="bottom"/>
    </contour>
    <contour>
      <point x="95" y="0" type="line"/>
      <point x="95" y="539" type="line"/>
      <point x="115" y="539" type="line"/>
      <point x="115" y="194" type="line"/>
      <point x="481" y="540" type="line"/>
      <point x="509" y="540" type="line"/>
      <point x="261" y="304" type="line"/>
      <point x="520" y="0" type="line"/>
      <point x="495" y="0" type="line"/>
      <point x="247" y="290" type="line"/>
      <point x="115" y="168" type="line"/>
      <point x="115" y="0" type="line"/>
    </contour>
  </outline>
</glyph>
<glyph name="R.sc" format="1">
  <advance width="555"/>
  <outline>
    <contour>
      <point x="320" y="710" type="move" name="top"/>
    </contour>
    <contour>
      <point x="320" y="0" type="move" name="bottom"/>
    </contour>
    <contour>
      <point x="95" y="0" type="line"/>
      <point x="95" y="540" type="line"/>
      <point x="333" y="540" type="line"/>
      <point x="369" y="540"/>
      <point x="429" y="511"/>
      <point x="473" y="465"/>
      <point x="498" y="405"/>
      <point x="498" y="375" type="qcurve"/>
      <point x="498" y="344"/>
      <point x="477" y="288"/>
      <point x="438" y="243"/>
      <point x="384" y="215"/>
      <point x="351" y="212" type="qcurve"/>
      <point x="498" y="0" type="line"/>
      <point x="474" y="0" type="line"/>
      <point x="328" y="210" type="line"/>
      <point x="115" y="210" type="line"/>
      <point x="115" y="0" type="line"/>
    </contour>
    <contour>
      <point x="115" y="230" type="line"/>
      <point x="338" y="230" type="line"/>
      <point x="370" y="230"/>
      <point x="421" y="255"/>
      <point x="457" y="295"/>
      <point x="477" y="348"/>
      <point x="477" y="375" type="qcurve"/>
      <point x="477" y="403"/>
      <point x="455" y="455"/>
      <point x="416" y="496"/>
      <point x="363" y="520"/>
      <point x="332" y="520" type="qcurve"/>
      <point x="115" y="520" type="line"/>
    </contour>
  </outline>
</glyph>
<glyph name="S.sc" format="1">
  <advance width="524"/>
  <outline>
    <contour>
      <point x="315" y="729" type="move" name="top"/>
    </contour>
    <contour>
      <point x="315" y="0" type="move" name="bottom"/>
    </contour>
    <contour>
      <point x="433" y="464" type="line"/>
      <point x="399" y="499"/>
      <point x="324" y="525"/>
      <point x="272" y="525" type="qcurve"/>
      <point x="174" y="525"/>
      <point x="87" y="457"/>
      <point x="87" y="399" type="qcurve"/>
      <point x="87" y="371"/>
      <point x="108" y="333"/>
      <point x="152" y="307"/>
      <point x="221" y="288"/>
      <point x="269" y="279" type="qcurve"/>
      <point x="317" y="270"/>
      <point x="395" y="249"/>
      <point x="450" y="217"/>
      <point x="479" y="169"/>
      <point x="479" y="133" type="qcurve"/>
      <point x="479" y="66"/>
      <point x="370" y="-4"/>
      <point x="274" y="-4" type="qcurve"/>
      <point x="204" y="-4"/>
      <point x="95" y="37"/>
      <point x="47" y="79" type="qcurve"/>
      <point x="61" y="93" type="line"/>
      <point x="104" y="52"/>
      <point x="208" y="13"/>
      <point x="275" y="13" type="qcurve"/>
      <point x="358" y="13"/>
      <point x="459" y="71"/>
      <point x="459" y="131" type="qcurve"/>
      <point x="459" y="160"/>
      <point x="436" y="201"/>
      <point x="389" y="231"/>
      <point x="316" y="252"/>
      <point x="266" y="261" type="qcurve"/>
      <point x="218" y="270"/>
      <point x="143" y="289"/>
      <point x="93" y="320"/>
      <point x="67" y="365"/>
      <point x="67" y="399" type="qcurve"/>
      <point x="67" y="469"/>
      <point x="178" y="543"/>
      <point x="271" y="543" type="qcurve"/>
      <point x="327" y="543"/>
      <point x="410" y="514"/>
      <point x="445" y="479" type="qcurve"/>
    </contour>
  </outline>
</glyph>
<glyph name="T.sc" format="1">
  <advance width="515"/>
  <outline>
    <contour>
      <point x="301" y="707" type="move" name="top"/>
    </contour>
    <contour>
      <point x="301" y="0" type="move" name="bottom"/>
    </contour>
    <contour>
      <point x="489" y="520" type="line"/>
      <point x="268" y="520" type="line"/>
      <point x="268" y="0" type="line"/>
      <point x="248" y="0" type="line"/>
      <point x="248" y="520" type="line"/>
      <point x="26" y="520" type="line"/>
      <point x="26" y="540" type="line"/>
      <point x="489" y="540" type="line"/>
    </contour>
  </outline>
</glyph>
<glyph name="U.sc" format="1">
  <advance width="648"/>
  <outline>
    <contour>
      <point x="382" y="707" type="move" name="top"/>
    </contour>
    <contour>
      <point x="382" y="0" type="move" name="bottom"/>
    </contour>
    <contour>
      <point x="323" y="16" type="qcurve"/>
      <point x="388" y="16"/>
      <point x="473" y="60"/>
      <point x="523" y="132"/>
      <point x="543" y="223"/>
      <point x="543" y="270" type="qcurve"/>
      <point x="543" y="540" type="line"/>
      <point x="563" y="540" type="line"/>
      <point x="563" y="270" type="line"/>
      <point x="563" y="216"/>
      <point x="539" y="117"/>
      <point x="483" y="41"/>
      <point x="391" y="-4"/>
      <point x="324" y="-4" type="qcurve"/>
      <point x="255" y="-4"/>
      <point x="163" y="43"/>
      <point x="108" y="121"/>
      <point x="85" y="219"/>
      <point x="85" y="270" type="qcurve"/>
      <point x="85" y="540" type="line"/>
      <point x="105" y="540" type="line"/>
      <point x="105" y="270" type="line"/>
      <point x="105" y="222"/>
      <point x="126" y="131"/>
      <point x="176" y="59"/>
      <point x="260" y="16"/>
    </contour>
  </outline>
</glyph>
<glyph name="a.alt" format="1">
  <advance width="607"/>
  <outline>
    <contour>
      <point x="293" y="-10" type="qcurve"/>
      <point x="238" y="-10"/>
      <point x="147" y="36"/>
      <point x="82" y="111"/>
      <point x="46" y="207"/>
      <point x="46" y="258" type="qcurve"/>
      <point x="46" y="312"/>
      <point x="85" y="410"/>
      <point x="152" y="484"/>
      <point x="242" y="527"/>
      <point x="293" y="527" type="qcurve"/>
      <point x="364" y="527"/>
      <point x="471" y="453"/>
      <point x="503" y="397" type="qcurve"/>
      <point x="503" y="517" type="line"/>
      <point x="523" y="517" type="line"/>
      <point x="523" y="0" type="line"/>
      <point x="503" y="0" type="line"/>
      <point x="503" y="119" type="line"/>
      <point x="471" y="62"/>
      <point x="361" y="-10"/>
    </contour>
    <contour>
      <point x="503" y="351" type="line"/>
      <point x="490" y="384"/>
      <point x="448" y="441"/>
      <point x="394" y="483"/>
      <point x="329" y="507"/>
      <point x="293" y="507" type="qcurve"/>
      <point x="242" y="507"/>
      <point x="158" y="462"/>
      <point x="98" y="391"/>
      <point x="66" y="302"/>
      <point x="66" y="258" type="qcurve"/>
      <point x="66" y="210"/>
      <point x="100" y="120"/>
      <point x="160" y="51"/>
      <point x="243" y="10"/>
      <point x="293" y="10" type="qcurve"/>
      <point x="331" y="10"/>
      <point x="397" y="35"/>
      <point x="451" y="78"/>
      <point x="491" y="135"/>
      <point x="503" y="167" type="qcurve"/>
    </contour>
  </outline>
</glyph>
<glyph name="five.lnum" format="1">
  <advance width="550"/>
  <outline>
    <contour>
      <point x="275" y="445" type="qcurve"/>
      <point x="322" y="445"/>
      <point x="406" y="412"/>
      <point x="469" y="353"/>
      <point x="505" y="270"/>
      <point x="505" y="221" type="qcurve"/>
      <point x="505" y="169"/>
      <point x="467" y="84"/>
      <point x="402" y="23"/>
      <point x="317" y="-10"/>
      <point x="270" y="-10" type="qcurve"/>
      <point x="232" y="-10"/>
      <point x="164" y="11"/>
      <point x="106" y="50"/>
      <point x="61" y="103"/>
      <point x="46" y="136" type="qcurve"/>
      <point x="68" y="136" type="line"/>
      <point x="95" y="79"/>
      <point x="203" y="10"/>
      <point x="270" y="10" type="qcurve"/>
      <point x="315" y="10"/>
      <point x="393" y="41"/>
      <point x="451" y="97"/>
      <point x="485" y="174"/>
      <point x="485" y="221" type="qcurve"/>
      <point x="485" y="266"/>
      <point x="452" y="341"/>
      <point x="395" y="395"/>
      <point x="319" y="425"/>
      <point x="275" y="425" type="qcurve"/>
      <point x="218" y="425"/>
      <point x="116" y="375"/>
      <point x="83" y="327" type="qcurve"/>
      <point x="59" y="327" type="line"/>
      <point x="61" y="336"/>
      <point x="70" y="378"/>
      <point x="82" y="435"/>
      <point x="95" y="502"/>
      <point x="102" y="536" type="qcurve"/>
      <point x="118" y="615"/>
      <point x="137" y="710" type="qcurve"/>
      <point x="474" y="710" type="line"/>
      <point x="474" y="690" type="line"/>
      <point x="154" y="690" type="line"/>
      <point x="89" y="365" type="line"/>
      <point x="125" y="404"/>
      <point x="222" y="445"/>
    </contour>
  </outline>
</glyph>
<glyph name="nine.denominator" format="1">
  <advance width="389"/>
  <outline>
    <contour>
      <point x="36" y="255" type="qcurve"/>
      <point x="36" y="282"/>
      <point x="60" y="330"/>
      <point x="101" y="366"/>
      <point x="157" y="386"/>
      <point x="189" y="386" type="qcurve"/>
      <point x="222" y="386"/>
      <point x="279" y="365"/>
      <point x="321" y="325"/>
      <point x="345" y="269"/>
      <point x="345" y="233" type="qcurve"/>
      <point x="345" y="171"/>
      <point x="322" y="82"/>
      <point x="280" y="23"/>
      <point x="222" y="-5"/>
      <point x="187" y="-5" type="qcurve"/>
      <point x="142" y="-5"/>
      <point x="73" y="36"/>
      <point x="59" y="71" type="qcurve"/>
      <point x="74" y="81" type="line"/>
      <point x="86" y="50"/>
      <point x="148" y="13"/>
      <point x="187" y="13" type="qcurve"/>
      <point x="249" y="13"/>
      <point x="325" y="114"/>
      <point x="325" y="207" type="qcurve"/>
      <point x="311" y="170"/>
      <point x="233" y="124"/>
      <point x="186" y="124" type="qcurve"/>
      <point x="155" y="124"/>
      <point x="100" y="145"/>
      <point x="60" y="180"/>
      <point x="36" y="228"/>
    </contour>
    <contour>
      <point x="188" y="368" type="qcurve"/>
      <point x="161" y="368"/>
      <point x="113" y="350"/>
      <point x="77" y="320"/>
      <point x="56" y="279"/>
      <point x="56" y="256" type="qcurve"/>
      <point x="56" y="233"/>
      <point x="77" y="191"/>
      <point x="114" y="160"/>
      <point x="162" y="142"/>
      <point x="189" y="142" type="qcurve"/>
      <point x="216" y="142"/>
      <point x="265" y="160"/>
      <point x="301" y="191"/>
      <point x="322" y="232"/>
      <point x="322" y="255" type="qcurve"/>
      <point x="322" y="278"/>
      <point x="301" y="319"/>
      <point x="264" y="350"/>
      <point x="215" y="368"/>
    </contour>
  </outline>
</glyph>
<glyph name="seven.numerator" format="1">
  <advance width="331"/>
  <outline>
    <contour>
      <point x="286" y="711" type="line"/>
      <point x="28" y="711" type="line"/>
      <point x="28" y="730" type="line"/>
      <point x="318" y="730" type="line"/>
      <point x="93" y="347" type="line"/>
      <point x="70" y="347" type="line"/>
    </contour>
  </outline>
</glyph>
<glyph name="three.numerator" format="1">
  <advance width="380"/>
  <outline>
    <contour>
      <point x="190" y="338" type="qcurve"/>
      <point x="159" y="338"/>
      <point x="106" y="352"/>
      <point x="66" y="378"/>
      <point x="42" y="413"/>
      <point x="41" y="434" type="qcurve"/>
      <point x="57" y="441" type="line"/>
      <point x="58" y="424"/>
      <point x="79" y="394"/>
      <point x="115" y="371"/>
      <point x="163" y="357"/>
      <point x="190" y="357" type="qcurve"/>
      <point x="217" y="357"/>
      <point x="263" y="370"/>
      <point x="298" y="392"/>
      <point x="317" y="424"/>
      <point x="317" y="442" type="qcurve"/>
      <point x="317" y="482"/>
      <point x="235" y="529"/>
      <point x="168" y="529" type="qcurve"/>
      <point x="146" y="529" type="line"/>
      <point x="146" y="547" type="line"/>
      <point x="168" y="547" type="line"/>
      <point x="234" y="547"/>
      <point x="304" y="586"/>
      <point x="304" y="624" type="qcurve"/>
      <point x="304" y="663"/>
      <point x="235" y="713"/>
      <point x="182" y="713" type="qcurve"/>
      <point x="140" y="713"/>
      <point x="76" y="679"/>
      <point x="63" y="653" type="qcurve"/>
      <point x="48" y="665" type="line"/>
      <point x="63" y="695"/>
      <point x="136" y="731"/>
      <point x="182" y="731" type="qcurve"/>
      <point x="213" y="731"/>
      <point x="265" y="715"/>
      <point x="303" y="686"/>
      <point x="325" y="647"/>
      <point x="325" y="625" type="qcurve"/>
      <point x="325" y="558"/>
      <point x="236" y="538" type="qcurve"/>
      <point x="282" y="530"/>
      <point x="337" y="477"/>
      <point x="337" y="440" type="qcurve"/>
      <point x="337" y="418"/>
      <point x="314" y="380"/>
      <point x="274" y="353"/>
      <point x="221" y="338"/>
    </contour>
  </outline>
</glyph>
<glyph name="u.alt" format="1">
  <advance width="575"/>
  <outline>
    <contour>
      <point x="471" y="0" type="line"/>
      <point x="471" y="132" type="line"/>
      <point x="455" y="100"/>
      <point x="407" y="48"/>
      <point x="348" y="11"/>
      <point x="282" y="-10"/>
      <point x="248" y="-10" type="qcurve"/>
      <point x="194" y="-10"/>
      <point x="127" y="32"/>
      <point x="90" y="100"/>
      <point x="78" y="185"/>
      <point x="78" y="228" type="qcurve"/>
      <point x="78" y="519" type="line"/>
      <point x="98" y="519" type="line"/>
      <point x="98" y="228" type="line"/>
      <point x="98" y="184"/>
      <point x="110" y="105"/>
      <point x="143" y="45"/>
      <point x="201" y="10"/>
      <point x="248" y="10" type="qcurve"/>
      <point x="288" y="10"/>
      <point x="360" y="40"/>
      <point x="419" y="90"/>
      <point x="461" y="154"/>
      <point x="471" y="189" type="qcurve"/>
      <point x="471" y="519" type="line"/>
      <point x="491" y="519" type="line"/>
      <point x="491" y="0" type="line"/>
    </contour>
  </outline>
</glyph>
<glyph name="zero.denominator" format="1">
  <advance width="437"/>
  <outline>
    <contour>
      <point x="219" y="-5" type="qcurve"/>
      <point x="175" y="-5"/>
      <point x="109" y="32"/>
      <point x="64" y="88"/>
      <point x="42" y="157"/>
      <point x="42" y="189" type="qcurve"/>
      <point x="42" y="223"/>
      <point x="67" y="293"/>
      <point x="113" y="348"/>
      <point x="178" y="383"/>
      <point x="219" y="383" type="qcurve"/>
      <point x="262" y="383"/>
      <point x="328" y="346"/>
      <point x="373" y="289"/>
      <point x="395" y="220"/>
      <point x="395" y="189" type="qcurve"/>
      <point x="395" y="154"/>
      <point x="371" y="84"/>
      <point x="325" y="29"/>
      <point x="260" y="-5"/>
    </contour>
    <contour>
      <point x="62" y="189" type="qcurve"/>
      <point x="62" y="158"/>
      <point x="83" y="96"/>
      <point x="123" y="46"/>
      <point x="181" y="14"/>
      <point x="219" y="14" type="qcurve"/>
      <point x="258" y="14"/>
      <point x="316" y="48"/>
      <point x="355" y="100"/>
      <point x="375" y="161"/>
      <point x="375" y="189" type="qcurve"/>
      <point x="375" y="220"/>
      <point x="354" y="282"/>
      <point x="313" y="332"/>
      <point x="255" y="364"/>
      <point x="219" y="364" type="qcurve"/>
      <point x="180" y="364"/>
      <point x="121" y="330"/>
      <point x="82" y="278"/>
      <point x="62" y="217"/>
    </contour>
  </outline>
</glyph>
